<?xml version="1.0" encoding="UTF-8"?>
<svg version="1.1" xmlns="http://www.w3.org/2000/svg" width="500" height="500">
<path d="M0 0 C15.18 0 30.36 0 46 0 C48.24896904 4.49793808 50.16144913 8.86482949 51.875 13.5625 C52.39534848 14.9702314 52.91619 16.37778064 53.4375 17.78515625 C53.69660156 18.48656738 53.95570313 19.18797852 54.22265625 19.91064453 C56.10071894 24.95852787 58.05622441 29.97714626 60 35 C60.58201172 33.19208984 60.58201172 33.19208984 61.17578125 31.34765625 C63.30342304 24.96473087 65.75459258 18.70891757 68.1875 12.4375 C68.65091797 11.23802734 69.11433594 10.03855469 69.59179688 8.80273438 C70.7260233 5.86777735 71.86275658 2.93378931 73 0 C80.59 0 88.18 0 96 0 C96 0.66 96 1.32 96 2 C96.66 2 97.32 2 98 2 C99.37632305 3.67881163 100.67441182 5.42191742 101.9375 7.1875 C105.87576843 12.61001567 110.07350229 17.74140562 114.45678711 22.80932617 C117.90671429 26.81342858 117.90671429 26.81342858 119 29 C119.33 19.43 119.66 9.86 120 0 C123.96 0 127.92 0 132 0 C133 1 133 1 133.12025452 3.17030334 C133.11803391 4.12738693 133.11581329 5.08447052 133.11352539 6.07055664 C133.11344986 7.15160172 133.11337433 8.23264679 133.11329651 9.34645081 C133.10813522 10.5224736 133.10297394 11.6984964 133.09765625 12.91015625 C133.09553383 14.70591347 133.09553383 14.70591347 133.09336853 16.53794861 C133.08774979 20.37949066 133.07519411 24.22097543 133.0625 28.0625 C133.05748741 30.65950437 133.05292409 33.25650965 133.04882812 35.85351562 C133.03777427 42.23569679 133.02101792 48.6178443 133 55 C131.38690189 55.04583539 129.77343081 55.07868427 128.15991211 55.10595703 C126.81225014 55.13545944 126.81225014 55.13545944 125.43736267 55.16555786 C123 55 123 55 120.44140625 53.3046875 C119.51134766 52.10199219 119.51134766 52.10199219 118.5625 50.875 C117.48355469 49.52535156 117.48355469 49.52535156 116.3828125 48.1484375 C115.59648437 47.10945313 114.81015625 46.07046875 114 45 C113.0013338 43.75983937 111.99853491 42.52299826 110.9921875 41.2890625 C103 31.40195108 103 31.40195108 103 29 C102.34 29 101.68 29 101 29 C100.505 28.01 100.505 28.01 100 27 C98.70454552 28.07029129 98.70454552 28.07029129 98.88647461 30.59204102 C98.89171143 31.71795654 98.89694824 32.84387207 98.90234375 34.00390625 C98.90556641 35.21884766 98.90878906 36.43378906 98.91210938 37.68554688 C98.92048828 38.96494141 98.92886719 40.24433594 98.9375 41.5625 C98.94201172 42.84576172 98.94652344 44.12902344 98.95117188 45.45117188 C98.96300445 48.6341342 98.98094056 51.81707274 99 55 C94.71 55 90.42 55 86 55 C85.67 39.82 85.34 24.64 85 9 C81.02407044 18.51491069 81.02407044 18.51491069 77.2109375 28.0859375 C76.74429688 29.28347656 76.27765625 30.48101562 75.796875 31.71484375 C75.08104251 33.55752244 74.36523659 35.40021225 73.65136719 37.24365234 C72.94457593 39.06705901 72.2340464 40.88901524 71.5234375 42.7109375 C71.11013184 43.77618652 70.69682617 44.84143555 70.27099609 45.93896484 C68.98328759 49.04024976 67.53677059 52.01534443 66 55 C64.04196493 55.05389087 62.08351091 55.09274217 60.125 55.125 C59.03445312 55.14820313 57.94390625 55.17140625 56.8203125 55.1953125 C54 55 54 55 52 53 C51.12886422 50.69619492 50.33150031 48.40042515 49.5625 46.0625 C46.73181894 37.72626556 43.46695623 29.57895888 40.125 21.4375 C39.62427979 20.21748291 39.12355957 18.99746582 38.60766602 17.74047852 C37.4081316 14.82572394 36.20580993 11.91216296 35 9 C34.60127686 9.48895752 34.20255371 9.97791504 33.79174805 10.48168945 C31.49084482 12.43145334 30.31344356 12.34993841 27.33203125 12.29296875 C26.43935547 12.28330078 25.54667969 12.27363281 24.62695312 12.26367188 C23.23379883 12.2259668 23.23379883 12.2259668 21.8125 12.1875 C20.87212891 12.17396484 19.93175781 12.16042969 18.96289062 12.14648438 C16.64168265 12.11113603 14.32076912 12.05732915 12 12 C12 14.97 12 17.94 12 21 C13.35996094 20.98839844 14.71992187 20.97679687 16.12109375 20.96484375 C17.8932278 20.95546738 19.66536333 20.94636702 21.4375 20.9375 C22.78424805 20.92493164 22.78424805 20.92493164 24.15820312 20.91210938 C25.01220703 20.90888672 25.86621094 20.90566406 26.74609375 20.90234375 C27.93223267 20.89448853 27.93223267 20.89448853 29.14233398 20.88647461 C31 21 31 21 32 22 C32.14310287 25.6691577 32.04221662 29.32715441 32 33 C25.4 33 18.8 33 12 33 C12 36.3 12 39.6 12 43 C13.64871094 42.98839844 15.29742187 42.97679687 16.99609375 42.96484375 C19.14322804 42.95546762 21.29036355 42.94636723 23.4375 42.9375 C24.52611328 42.92912109 25.61472656 42.92074219 26.73632812 42.91210938 C27.77080078 42.90888672 28.80527344 42.90566406 29.87109375 42.90234375 C30.82943115 42.89710693 31.78776855 42.89187012 32.77514648 42.88647461 C35 43 35 43 36 44 C36 47.63 36 51.26 36 55 C24.12 55 12.24 55 0 55 C-1.54374446 51.91251109 -1.14196956 48.66086471 -1.1328125 45.2734375 C-1.13376923 44.49296051 -1.13472595 43.71248352 -1.13571167 42.90835571 C-1.13639372 41.24554362 -1.13453773 39.58272889 -1.13037109 37.91992188 C-1.12512353 35.43352855 -1.13026189 32.9473244 -1.13671875 30.4609375 C-1.13605602 28.83593711 -1.13477085 27.21093684 -1.1328125 25.5859375 C-1.13483673 24.86546234 -1.13686096 24.14498718 -1.13894653 23.40267944 C-1.10518924 15.55168158 -0.49278486 7.88455774 0 0 Z " fill="#1B2248" transform="translate(91,238)"/>
<path d="M0 0 C5.13249724 3.66935251 8.95824407 6.91704839 11 13 C11.66 13 12.32 13 13 13 C16.91746079 22.30396938 17.92465808 32.81332244 14.375 42.4375 C12.20311844 47.07496953 9.34659684 51.13579619 6 55 C5.52691406 55.56847656 5.05382812 56.13695312 4.56640625 56.72265625 C3 58 3 58 -1 58 C-5.0633856 50.97191247 -5.0633856 50.97191247 -4.8125 47.125 C-4 45 -4 45 -3 43 C-2.34 43 -1.68 43 -1 43 C1.65896901 36.30509589 3.52765199 29.96486898 1.34375 22.8671875 C-0.91178754 17.75333945 -4.11085218 13.77321829 -9 11 C-13.31980147 9.44767075 -17.64715461 8.21138515 -22.12109375 9.7109375 C-24.20620356 10.85799453 -24.20620356 10.85799453 -27 13 C-28.32646156 13.6802367 -29.65608877 14.35492261 -31 15 C-31 15.66 -31 16.32 -31 17 C-31.66 17 -32.32 17 -33 17 C-35.77886036 24.29450845 -37.34775148 30.08739583 -34.375 37.625 C-31.02436735 44.5378842 -26.09890134 47.23931614 -19 50 C-17.65986503 50.65288627 -16.32258472 51.31225595 -15 52 C-16.74337729 56.19114944 -18.75444875 57.41077971 -22.79296875 59.22265625 C-26.36993595 60.48250841 -29.35740609 61.00154183 -33 60 C-41.17127167 55.51763292 -46.52650771 48.26026035 -49.875 39.6875 C-52.84673961 29.37592159 -51.12800838 20.29788889 -46 11 C-35.2061711 -3.70902535 -16.33576083 -8.753042 0 0 Z " fill="#4EA4AB" transform="translate(269,166)"/>
<path d="M0 0 C7.07902323 4.63708494 13.62135462 10.23100384 15.703125 18.7421875 C17.10166687 27.45420521 16.57972824 34.71913415 12.12890625 42.39453125 C11.77054687 43.01714844 11.4121875 43.63976562 11.04296875 44.28125 C10.00390625 45.95703125 10.00390625 45.95703125 8.12890625 48.39453125 C7.46890625 48.39453125 6.80890625 48.39453125 6.12890625 48.39453125 C6.12890625 49.05453125 6.12890625 49.71453125 6.12890625 50.39453125 C-3.54770663 56.14344865 -11.53749739 58.88976104 -22.87109375 56.39453125 C-28.32296625 53.86401449 -33.57487004 51.20564487 -35.87109375 45.39453125 C-36.53109375 45.39453125 -37.19109375 45.39453125 -37.87109375 45.39453125 C-42.6091488 36.51343272 -44.16109933 28.7370587 -42.12109375 18.70703125 C-38.83584049 10.00111012 -33.99458455 4.20231152 -25.87109375 -0.60546875 C-17.54126711 -3.85130902 -8.05553945 -4.19837507 0 0 Z M-23.49609375 14.64453125 C-27.47263183 19.24894376 -29.49290557 23.14094068 -29.21875 29.375 C-28.36501578 34.3343325 -25.88894399 37.49503569 -22.18359375 40.76953125 C-16.84683464 43.38756402 -12.24499095 44.20076049 -6.55859375 42.26953125 C-1.49022133 38.73345747 1.01602565 34.5755623 2.7734375 28.73046875 C3.39254234 24.66206555 2.33756814 21.80074683 0.12890625 18.39453125 C-3.70599938 13.74522362 -7.87192325 11.49036945 -13.80078125 10.515625 C-18.18655705 10.25909849 -20.2540575 11.86564304 -23.49609375 14.64453125 Z " fill="#4AA1A8" transform="translate(268.87109375,238.60546875)"/>
<path d="M0 0 C1.20785156 -0.02900391 2.41570313 -0.05800781 3.66015625 -0.08789062 C13.28340806 -0.15595497 20.8947999 1.43649991 28 8.3125 C28 8.9725 28 9.6325 28 10.3125 C28.66 10.3125 29.32 10.3125 30 10.3125 C34.98459007 18.72399574 35.27722965 27.76785963 34 37.3125 C31.67268792 45.09766783 25.98945822 49.97841864 19.17578125 53.96484375 C13.32843516 56.37768916 6.7621992 55.62205364 0.5625 55.5 C-0.74138672 55.48646484 -2.04527344 55.47292969 -3.38867188 55.45898438 C-6.59287622 55.42377334 -9.79622105 55.37452094 -13 55.3125 C-13.89808531 52.23483481 -14.12648831 49.48562626 -14.12939453 46.28442383 C-14.13254669 45.28691605 -14.13569885 44.28940826 -14.13894653 43.26167297 C-14.1369223 42.1917662 -14.13489807 41.12185944 -14.1328125 40.01953125 C-14.13376923 38.91776047 -14.13472595 37.81598969 -14.13571167 36.68083191 C-14.13639168 34.3550104 -14.13454988 32.02918699 -14.13037109 29.70336914 C-14.12500507 26.1283751 -14.13033001 22.55350583 -14.13671875 18.97851562 C-14.13605824 16.72135389 -14.13477763 14.46419223 -14.1328125 12.20703125 C-14.13483673 11.13105179 -14.13686096 10.05507233 -14.13894653 8.94648743 C-14.13579437 7.95843613 -14.13264221 6.97038483 -14.12939453 5.95239258 C-14.12859894 5.07843338 -14.12780334 4.20447418 -14.12698364 3.30403137 C-13.77849844 -2.16139073 -4.07065728 0.03176892 0 0 Z M-1 12.3125 C-1 22.5425 -1 32.7725 -1 43.3125 C9.19296983 44.00207553 9.19296983 44.00207553 17 40.3125 C20.61473158 36.5731225 20.87713122 32.97122849 21.25 27.9375 C20.87225965 22.46026497 19.4958757 18.69892138 15.4375 14.9375 C9.17318152 10.76128768 9.54058957 12.3125 -1 12.3125 Z " fill="#171E44" transform="translate(54,237.6875)"/>
<path d="M0 0 C1.79244141 0.01740234 1.79244141 0.01740234 3.62109375 0.03515625 C5.41740234 0.04869141 5.41740234 0.04869141 7.25 0.0625 C8.17683594 0.07410156 9.10367188 0.08570313 10.05859375 0.09765625 C10.47109375 1.04382813 10.88359375 1.99 11.30859375 2.96484375 C11.89180731 4.30083354 12.47515157 5.63676628 13.05859375 6.97265625 C13.36893555 7.68357422 13.67927734 8.39449219 13.99902344 9.12695312 C15.716517 13.05411751 17.44683898 16.97498577 19.19921875 20.88671875 C19.72708984 22.06645264 19.72708984 22.06645264 20.265625 23.27001953 C20.94326313 24.78233271 21.62284222 26.29377822 22.3046875 27.80419922 C24.14087416 31.90470383 25.80503869 36.02786038 27.35302734 40.24511719 C28.72428653 43.8455029 30.42652736 47.29581652 32.0703125 50.77734375 C33.05859375 53.09765625 33.05859375 53.09765625 33.05859375 55.09765625 C28.43859375 55.09765625 23.81859375 55.09765625 19.05859375 55.09765625 C15.18359375 47.47265625 15.18359375 47.47265625 14.05859375 44.09765625 C7.12859375 44.09765625 0.19859375 44.09765625 -6.94140625 44.09765625 C-8.26140625 47.06765625 -9.58140625 50.03765625 -10.94140625 53.09765625 C-11.27140625 53.75765625 -11.60140625 54.41765625 -11.94140625 55.09765625 C-16.56140625 55.09765625 -21.18140625 55.09765625 -25.94140625 55.09765625 C-24.93918157 50.99764619 -23.64293986 47.31911808 -21.84375 43.5 C-19.51524006 38.43965269 -17.33860326 33.32892888 -15.20703125 28.18359375 C-14.88083298 27.39654556 -14.5546347 26.60949738 -14.21855164 25.79859924 C-12.86026675 22.5166216 -11.50513493 19.23334893 -10.15087891 15.94970703 C-9.15082578 13.52681024 -8.14782161 11.10515143 -7.14453125 8.68359375 C-6.83727112 7.93580658 -6.53001099 7.18801941 -6.21343994 6.41757202 C-3.60204763 0.11958989 -3.60204763 0.11958989 0 0 Z M3.05859375 17.09765625 C1.07859375 22.04765625 -0.90140625 26.99765625 -2.94140625 32.09765625 C1.01859375 32.09765625 4.97859375 32.09765625 9.05859375 32.09765625 C6.86779435 24.48996173 6.86779435 24.48996173 4.05859375 17.09765625 C3.72859375 17.09765625 3.39859375 17.09765625 3.05859375 17.09765625 Z " fill="#1A2248" transform="translate(351.94140625,237.90234375)"/>
<path d="M0 0 C11.55 0 23.1 0 35 0 C35 3.63 35 7.26 35 11 C34 12 34 12 31.86694336 12.11352539 C30.95050049 12.10828857 30.03405762 12.10305176 29.08984375 12.09765625 C28.10048828 12.09443359 27.11113281 12.09121094 26.09179688 12.08789062 C25.05087891 12.07951172 24.00996094 12.07113281 22.9375 12.0625 C21.89271484 12.05798828 20.84792969 12.05347656 19.77148438 12.04882812 C17.1809334 12.03699913 14.59049441 12.02051689 12 12 C12 14.97 12 17.94 12 21 C13.43214844 20.98839844 14.86429687 20.97679687 16.33984375 20.96484375 C18.20572787 20.95546745 20.07161339 20.94636708 21.9375 20.9375 C22.88302734 20.92912109 23.82855469 20.92074219 24.80273438 20.91210938 C26.15141602 20.90727539 26.15141602 20.90727539 27.52734375 20.90234375 C28.77632446 20.89448853 28.77632446 20.89448853 30.05053711 20.88647461 C32 21 32 21 33 22 C33.14310287 25.6691577 33.04221662 29.32715441 33 33 C26.07 33 19.14 33 12 33 C12 36.3 12 39.6 12 43 C19.92 43 27.84 43 36 43 C36 46.96 36 50.92 36 55 C24.12 55 12.24 55 0 55 C0 36.85 0 18.7 0 0 Z " fill="#1D254A" transform="translate(425,238)"/>
<path d="M0 0 C4.62 0 9.24 0 14 0 C17.40953924 7.82188415 20.31059419 15.65653317 22.94384766 23.76708984 C24.17888386 27.56880277 25.45223282 31.31029909 27 35 C32.73081003 23.82362388 36.72322458 11.78270114 41 0 C45.62 0 50.24 0 55 0 C51.44968072 12.90876456 46.12549173 25.2963871 41.25 37.75 C41.00589386 38.37490326 40.76178772 38.99980652 40.51028442 39.64364624 C39.80579357 41.44553016 39.09825877 43.24622305 38.390625 45.046875 C37.97844727 46.09713867 37.56626953 47.14740234 37.14160156 48.22949219 C36.19374095 50.52981774 35.11264886 52.77470229 34 55 C29.71 55 25.42 55 21 55 C8.47327942 24.32795623 8.47327942 24.32795623 2.73779297 9.84082031 C2.10752347 8.26827497 1.44916257 6.70703755 0.78515625 5.1484375 C0 3 0 3 0 0 Z " fill="#131B44" transform="translate(282,238)"/>
<path d="M0 0 C14.85 0 29.7 0 45 0 C45 3.63 45 7.26 45 11 C43.00383446 12.99616554 39.18298037 12.40983427 36.4375 12.5625 C35.72658203 12.60568359 35.01566406 12.64886719 34.28320312 12.69335938 C32.52238088 12.79971777 30.7612168 12.90038846 29 13 C29.00785522 14.85516235 29.00785522 14.85516235 29.01586914 16.74780273 C29.03391561 21.31924725 29.04543071 25.89068859 29.05493164 30.4621582 C29.05997267 32.44393441 29.06680538 34.42570689 29.07543945 36.4074707 C29.08751515 39.24952109 29.09323045 42.09152247 29.09765625 44.93359375 C29.10281754 45.82525742 29.10797882 46.71692108 29.11329651 47.63560486 C29.11349177 49.75740601 29.0621003 51.8791078 29 54 C28 55 28 55 25.3125 55.1328125 C24.219375 55.13023437 23.12625 55.12765625 22 55.125 C20.906875 55.12757813 19.81375 55.13015625 18.6875 55.1328125 C16 55 16 55 15 54 C14.91125865 50.89748799 14.88481545 47.8173188 14.90234375 44.71484375 C14.9037587 43.78402481 14.90517365 42.85320587 14.90663147 41.8941803 C14.91224828 38.90858809 14.9248036 35.92306971 14.9375 32.9375 C14.94251284 30.91862087 14.94707612 28.89974057 14.95117188 26.88085938 C14.96222317 21.92054428 14.97949905 16.96028468 15 12 C13.39318359 12.01740234 13.39318359 12.01740234 11.75390625 12.03515625 C10.35677257 12.04453299 8.95963701 12.05363331 7.5625 12.0625 C6.85544922 12.07087891 6.14839844 12.07925781 5.41992188 12.08789062 C3.61306441 12.09653588 1.80612397 12.05220011 0 12 C-1 11 -1 11 -1.1328125 9.00390625 C-1.13023437 8.19824219 -1.12765625 7.39257812 -1.125 6.5625 C-1.12757813 5.75941406 -1.13015625 4.95632812 -1.1328125 4.12890625 C-1 2 -1 2 0 0 Z " fill="#232A50" transform="translate(378,238)"/>
<path d="M0 0 C9 0 9 0 11.9375 2.3125 C16.44751728 8.18918919 16.44751728 8.18918919 16 13 C15.649375 13.969375 15.29875 14.93875 14.9375 15.9375 C13.87689775 19.40213403 14.17018937 21.51479537 15 25 C14.01 25 13.02 25 12 25 C12 34.57 12 44.14 12 54 C8.04 54 4.08 54 0 54 C0 36.18 0 18.36 0 0 Z " fill="#171F48" transform="translate(178,239)"/>
<path d="M0 0 C0.33 0.66 0.66 1.32 1 2 C0.34 2 -0.32 2 -1 2 C-0.48308594 2.80824219 0.03382813 3.61648437 0.56640625 4.44921875 C1.22511719 5.51785156 1.88382813 6.58648437 2.5625 7.6875 C3.22378906 8.74324219 3.88507813 9.79898438 4.56640625 10.88671875 C6.16413035 14.35643567 6.11018851 15.45093991 5 19 C4.47917636 25.45821314 5.17134293 28.72266187 9 34 C13.09029748 37.50596927 17.77514745 37.87717345 23 38 C25.90021751 37.6587012 25.90021751 37.6587012 28 37 C26.89631287 39.72242827 25.90458041 41.57202647 23.18359375 42.859375 C21.66594311 43.34806394 20.13569304 43.79860337 18.59765625 44.21875 C15.92512915 44.95508933 15.92512915 44.95508933 13.24609375 46.28125 C10.43428197 47.56396803 8.06102126 48.5466816 5 49 C1.67501967 47.64168785 -0.71383893 45.76435522 -3 43 C-3 42.34 -3 41.68 -3 41 C-3.66 41 -4.32 41 -5 41 C-9.73805505 32.11890147 -11.29000558 24.34252745 -9.25 14.3125 C-7.13173241 8.69909089 -4.54080165 4.05428719 0 0 Z " fill="#47A4AA" transform="translate(236,243)"/>
<path d="M0 0 C0.33 1.32 0.66 2.64 1 4 C1.66 4 2.32 4 3 4 C3.433125 4.928125 3.86625 5.85625 4.3125 6.8125 C5.71824285 9.46779205 6.71534253 11.1307348 9 13 C9.33 13 9.66 13 10 13 C10.10957031 13.65226563 10.21914062 14.30453125 10.33203125 14.9765625 C11.87062788 23.45760736 13.71300791 28.81502486 21 34 C23.30144109 35.07136051 25.6340213 36.07989717 28 37 C29.34013497 37.65288627 30.67741528 38.31225595 32 39 C30.25662271 43.19114944 28.24555125 44.41077971 24.20703125 46.22265625 C20.63006405 47.48250841 17.64259391 48.00154183 14 47 C5.82872833 42.51763292 0.47349229 35.26026035 -2.875 26.6875 C-5.64398604 17.17014678 -4.34121981 8.75996141 0 0 Z " fill="#49A2A9" transform="translate(222,179)"/>
<path d="M0 0 C9.1588785 8.63551402 9.1588785 8.63551402 10.625 14.5 C9.69243738 18.23025049 7.64420085 21.21958275 5 24 C4.34 24 3.68 24 3 24 C3 24.66 3 25.32 3 26 C-6.90320723 31.88353808 -14.43398828 33.87475223 -26 32 C-28.39453125 30.953125 -28.39453125 30.953125 -30 30 C-29 27 -29 27 -26.234375 25.61328125 C-25.08453125 25.18402344 -23.9346875 24.75476563 -22.75 24.3125 C-21.61046875 23.87550781 -20.4709375 23.43851562 -19.296875 22.98828125 C-16.29473805 22.08835157 -14.09885269 21.78447829 -11 22 C-10.67 21.01 -10.34 20.02 -10 19 C-9.08949715 17.81214398 -8.14803378 16.64777708 -7.1875 15.5 C-3.52821089 10.77378563 -1.76833373 5.65866794 0 0 Z " fill="#1B234A" transform="translate(272,263)"/>
<path d="M0 0 C0 0.66 0 1.32 0 2 C-2.20318285 3.51748318 -4.40126035 4.9307068 -6.6875 6.3125 C-11.38660939 9.15325923 -15.17250137 11.99479607 -19 16 C-21.3125 17.3125 -21.3125 17.3125 -23 18 C-23 18.66 -23 19.32 -23 20 C-23.66 20 -24.32 20 -25 20 C-25.18175781 20.63808594 -25.36351562 21.27617187 -25.55078125 21.93359375 C-25.92783203 23.17302734 -25.92783203 23.17302734 -26.3125 24.4375 C-26.55613281 25.26121094 -26.79976562 26.08492187 -27.05078125 26.93359375 C-27.36402344 27.61550781 -27.67726562 28.29742187 -28 29 C-28.99 29.33 -29.98 29.66 -31 30 C-33.91227269 26.71195019 -35.49701212 24.40114397 -36 20 C-36.66 20 -37.32 20 -38 20 C-38.32432368 16.51352041 -38.32416497 14.54027496 -36.5 11.5 C-26.88804342 1.88804342 -13.73217496 -4.57739165 0 0 Z " fill="#1A2249" transform="translate(261,163)"/>
<path d="M0 0 C4.59955272 1.48809058 7.39823137 3.88938164 11 7 C11.33 7 11.66 7 12 7 C12.9547107 14.16033021 9.88278032 19.12288252 6 25 C4.10402499 27.42573274 2.4299566 29.04546969 0 31 C-1.32 31 -2.64 31 -4 31 C-8.0633856 23.97191247 -8.0633856 23.97191247 -7.8125 20.125 C-7 18 -7 18 -6 16 C-5.34 16 -4.68 16 -4 16 C-2.07528683 10.66164461 -0.60108576 5.65020618 0 0 Z " fill="#368B98" transform="translate(272,193)"/>
<path d="M0 0 C1.10988281 -0.01417969 2.21976562 -0.02835938 3.36328125 -0.04296875 C6.7836836 0.19416843 9.49723443 0.96641499 12.6875 2.1875 C12.51953125 4.015625 12.51953125 4.015625 11.6875 6.1875 C9.32421875 7.671875 9.32421875 7.671875 6.375 8.9375 C5.40949219 9.36546875 4.44398438 9.7934375 3.44921875 10.234375 C0.6875 11.1875 0.6875 11.1875 -3.3125 11.1875 C-3.3125 11.8475 -3.3125 12.5075 -3.3125 13.1875 C-4.3025 13.1875 -5.2925 13.1875 -6.3125 13.1875 C-6.580625 13.826875 -6.84875 14.46625 -7.125 15.125 C-8.3125 17.1875 -8.3125 17.1875 -11.3125 18.1875 C-11.6425 19.1775 -11.9725 20.1675 -12.3125 21.1875 C-12.9725 21.1875 -13.6325 21.1875 -14.3125 21.1875 C-15.8203125 19.0703125 -15.8203125 19.0703125 -17.4375 16.3125 C-17.97632813 15.40757812 -18.51515625 14.50265625 -19.0703125 13.5703125 C-20.3125 11.1875 -20.3125 11.1875 -20.3125 9.1875 C-19.6525 9.1875 -18.9925 9.1875 -18.3125 9.1875 C-18.18488281 8.26517578 -18.18488281 8.26517578 -18.0546875 7.32421875 C-17.3125 5.1875 -17.3125 5.1875 -15.5703125 3.95703125 C-14.51457031 3.48330078 -14.51457031 3.48330078 -13.4375 3 C-12.38949219 2.51466797 -12.38949219 2.51466797 -11.3203125 2.01953125 C-7.36980335 0.38245256 -4.26100535 0.02457327 0 0 Z " fill="#141F46" transform="translate(255.3125,235.8125)"/>
<path d="M0 0 C4.62 0 9.24 0 14 0 C21.00476429 16.47066199 21.00476429 16.47066199 22 21 C21.67 21.66 21.34 22.32 21 23 C18.625 22.6875 18.625 22.6875 16 22 C15.34 21.01 14.68 20.02 14 19 C13.01 19.99 12.02 20.98 11 22 C11.515625 22.70125 12.03125 23.4025 12.5625 24.125 C14.30443767 27.60887535 13.94693195 29.2983569 13 33 C10.57141649 30.57141649 9.93902808 28.5347661 8.75 25.3125 C7.3229572 21.49143315 5.88568211 17.68479457 4.33984375 13.91015625 C4.06495117 13.23750732 3.79005859 12.5648584 3.50683594 11.87182617 C2.96826054 10.55924923 2.42604601 9.24815853 1.87988281 7.9387207 C0.72759506 5.11440436 0 3.08448063 0 0 Z " fill="#21294E" transform="translate(282,238)"/>
<path d="M0 0 C3.4375 2 3.4375 2 6 4 C5.34 5.32 4.68 6.64 4 8 C3.484375 7.67 2.96875 7.34 2.4375 7 C-0.90236837 5.62979759 -3.42599644 5.6101087 -7 6 C-9.22303517 7.32265515 -9.22303517 7.32265515 -10 10 C-9.93085339 13.09032166 -9.49629054 15.93202213 -9 19 C-6.03 19.33 -3.06 19.66 0 20 C0.33 18.68 0.66 17.36 1 16 C-0.65 16 -2.3 16 -4 16 C-4 14.68 -4 13.36 -4 12 C-0.37 12 3.26 12 7 12 C7.390625 19.51953125 7.390625 19.51953125 7 22 C3.7850532 25.26540561 0.65528682 25.70803562 -3.75 26.0703125 C-7.90336974 25.9405197 -10.69717734 24.07819806 -13.8125 21.5 C-16.44196184 18.17857451 -16.39114888 14.34006857 -16.3515625 10.2890625 C-15.74498198 6.33954932 -13.89540181 4.69798805 -11 2 C-7.52761813 -0.54641337 -4.20787993 -0.43529792 0 0 Z " fill="#393F5D" transform="translate(253,305)"/>
<path d="M0 0 C3.18633188 0.21974703 4.04170872 1.04518445 6.25 3.4375 C8 6 8 6 8 8 C8.66 8 9.32 8 10 8 C11.38938077 9.96147874 12.7260411 11.96166576 14 14 C14.33 9.71 14.66 5.42 15 1 C16.32 0.67 17.64 0.34 19 0 C20.32411006 2.64822012 20.01892401 4.48938194 19.87890625 7.4453125 C19.83056641 8.52167969 19.78222656 9.59804688 19.73242188 10.70703125 C19.67634766 11.83496094 19.62027344 12.96289062 19.5625 14.125 C19.51029297 15.26066406 19.45808594 16.39632813 19.40429688 17.56640625 C19.27435544 20.37786631 19.13938086 23.18899465 19 26 C14.23782847 25.18122516 12.45246557 22.16517416 9.75 18.4375 C9.29109375 17.82197266 8.8321875 17.20644531 8.359375 16.57226562 C7.23028585 15.05505208 6.11388857 13.52840817 5 12 C4.67 16.29 4.34 20.58 4 25 C2.35 25.33 0.7 25.66 -1 26 C-1.02886751 21.85418113 -1.04675327 17.70838784 -1.0625 13.5625 C-1.07087891 12.37849609 -1.07925781 11.19449219 -1.08789062 9.97460938 C-1.09111328 8.84990234 -1.09433594 7.72519531 -1.09765625 6.56640625 C-1.10289307 5.52427979 -1.10812988 4.48215332 -1.11352539 3.40844727 C-1 1 -1 1 0 0 Z " fill="#3D435A" transform="translate(162,305)"/>
<path d="M0 0 C1.32 0 2.64 0 4 0 C4 3.3 4 6.6 4 10 C7.63 10 11.26 10 15 10 C15 7.03 15 4.06 15 1 C16.32 0.67 17.64 0.34 19 0 C20 1 20 1 20.11352539 3.31665039 C20.10828857 4.31688232 20.10305176 5.31711426 20.09765625 6.34765625 C20.09443359 7.42724609 20.09121094 8.50683594 20.08789062 9.61914062 C20.07951172 10.75544922 20.07113281 11.89175781 20.0625 13.0625 C20.05798828 14.20267578 20.05347656 15.34285156 20.04882812 16.51757812 C20.03699747 19.34510351 20.0205141 22.1725264 20 25 C18.0625 25.5625 18.0625 25.5625 16 26 C15 25 15 25 14.90234375 22.71484375 C14.95117188 18.85742188 14.95117188 18.85742188 15 15 C11.37 15 7.74 15 4 15 C4 18.63 4 22.26 4 26 C2.35 25.67 0.7 25.34 -1 25 C-1.02886984 21.02084841 -1.04675406 17.04172347 -1.0625 13.0625 C-1.07087891 11.92619141 -1.07925781 10.78988281 -1.08789062 9.61914062 C-1.09111328 8.53955078 -1.09433594 7.45996094 -1.09765625 6.34765625 C-1.10289307 5.34742432 -1.10812988 4.34719238 -1.11352539 3.31665039 C-1 1 -1 1 0 0 Z " fill="#3A415D" transform="translate(271,305)"/>
<path d="M0 0 C0.77601563 0.09925781 1.55203125 0.19851563 2.3515625 0.30078125 C4.375 0.6875 4.375 0.6875 6.375 1.6875 C6.375 3.3375 6.375 4.9875 6.375 6.6875 C5.055 6.6875 3.735 6.6875 2.375 6.6875 C2.375 6.0275 2.375 5.3675 2.375 4.6875 C0.065 4.6875 -2.245 4.6875 -4.625 4.6875 C-4.295 6.3375 -3.965 7.9875 -3.625 9.6875 C-2.2946875 9.8421875 -2.2946875 9.8421875 -0.9375 10 C2.55967769 10.72582933 4.62574869 11.40954891 7.375 13.6875 C8.4375 16.5625 8.4375 16.5625 8.375 19.6875 C7 22.5 7 22.5 4.375 24.6875 C0.65213711 25.90025079 -2.88333217 26.45369196 -6.54296875 24.84375 C-8.1875 23.75 -8.1875 23.75 -10.625 21.6875 C-10.13 20.2025 -10.13 20.2025 -9.625 18.6875 C-8.635 18.3575 -7.645 18.0275 -6.625 17.6875 C-5.965 18.3475 -5.305 19.0075 -4.625 19.6875 C-1.54152174 19.85431109 -1.54152174 19.85431109 1.375 19.6875 C1.705 18.3675 2.035 17.0475 2.375 15.6875 C1.76011719 15.58953125 1.14523438 15.4915625 0.51171875 15.390625 C-5.96469898 14.19243607 -5.96469898 14.19243607 -8.75 12.0625 C-10.16268303 8.22807463 -9.58712046 5.66426457 -8.625 1.6875 C-5.67622877 -0.41504549 -3.51699439 -0.48814471 0 0 Z " fill="#3F4666" transform="translate(202.625,305.3125)"/>
<path d="M0 0 C2.4375 2 2.4375 2 4 4 C3.67 4.99 3.34 5.98 3 7 C-0.3 6.67 -3.6 6.34 -7 6 C-6.67 6.99 -6.34 7.98 -6 9 C-3.96461053 9.91404105 -3.96461053 9.91404105 -1.5625 10.5 C2.78082192 11.67123288 2.78082192 11.67123288 5 15 C5.44890509 18.51642319 5.4468255 20.31114402 3.5 23.3125 C0.14851763 25.5747506 -3.0191283 26.22878573 -7 26 C-10.5 24.5625 -10.5 24.5625 -13 23 C-13 21.68 -13 20.36 -13 19 C-12.01 18.67 -11.02 18.34 -10 18 C-9.01 18.66 -8.02 19.32 -7 20 C-3.87478167 20.16699232 -3.87478167 20.16699232 -1 20 C-1 19.01 -1 18.02 -1 17 C-1.71027344 16.72285156 -2.42054688 16.44570313 -3.15234375 16.16015625 C-4.07144531 15.79792969 -4.99054688 15.43570312 -5.9375 15.0625 C-6.85402344 14.70285156 -7.77054687 14.34320313 -8.71484375 13.97265625 C-11 13 -11 13 -12 12 C-12.42558291 8.94796253 -12.47761502 6.04685441 -12 3 C-8.49634838 -0.50365162 -4.7798106 -0.60833953 0 0 Z " fill="#2D3252" transform="translate(344,305)"/>
<path d="M0 0 C3.92522773 1.96261386 5.04037987 7.55009283 6.6875 11.4375 C7.11611328 12.41783203 7.54472656 13.39816406 7.98632812 14.40820312 C8.38658203 15.34470703 8.78683594 16.28121094 9.19921875 17.24609375 C9.56877686 18.10904053 9.93833496 18.9719873 10.3190918 19.86108398 C11 22 11 22 10 24 C6.71585695 24.95067299 5.30306592 25.10102197 2 24 C1.3125 21.9375 1.3125 21.9375 1 20 C0.34 20.33 -0.32 20.66 -1 21 C-1.33 22.32 -1.66 23.64 -2 25 C-6.29 25 -10.58 25 -15 25 C-15 24.67 -15 24.34 -15 24 C-11.04 24 -7.08 24 -3 24 C-3.680625 22.39125 -4.36125 20.7825 -5.0625 19.125 C-6.22265625 16.3828125 -6.22265625 16.3828125 -7 14 C-6.67 13.34 -6.34 12.68 -6 12 C-5.525625 10.824375 -5.05125 9.64875 -4.5625 8.4375 C-3 5 -3 5 -1 4 C-0.67 4.99 -0.34 5.98 0 7 C0 4.69 0 2.38 0 0 Z " fill="#222A4F" transform="translate(364,246)"/>
<path d="M0 0 C3.47220635 3.38601683 6.67293204 6.8767595 9.75 10.625 C10.52859375 11.56601562 11.3071875 12.50703125 12.109375 13.4765625 C14 16 14 16 15 19 C13.02 19 11.04 19 9 19 C8.93941406 19.62648438 8.87882813 20.25296875 8.81640625 20.8984375 C8.73261719 21.71570313 8.64882812 22.53296875 8.5625 23.375 C8.48128906 24.18710937 8.40007812 24.99921875 8.31640625 25.8359375 C8 28 8 28 7 30 C5.82750647 28.54634731 4.66216184 27.08692581 3.5 25.625 C2.8503125 24.81289063 2.200625 24.00078125 1.53125 23.1640625 C0 21 0 21 0 19 C-0.66 19 -1.32 19 -2 19 C-2.33 18.01 -2.66 17.02 -3 16 C-2.34 16 -1.68 16 -1 16 C-1.33 15.05125 -1.66 14.1025 -2 13.125 C-3 10 -3 10 -3 8 C-2.34 8 -1.68 8 -1 8 C-1.33 7.01 -1.66 6.02 -2 5 C-1.0625 2.3125 -1.0625 2.3125 0 0 Z " fill="#242B51" transform="translate(194,248)"/>
<path d="M0 0 C6.27 0 12.54 0 19 0 C19.33 1.65 19.66 3.3 20 5 C17.36 5 14.72 5 12 5 C12 11.6 12 18.2 12 25 C10.68 25.33 9.36 25.66 8 26 C7 25 7 25 6.88647461 23.05053711 C6.89432983 21.8015564 6.89432983 21.8015564 6.90234375 20.52734375 C6.90556641 19.62822266 6.90878906 18.72910156 6.91210938 17.80273438 C6.92048828 16.85720703 6.92886719 15.91167969 6.9375 14.9375 C6.94201172 13.98810547 6.94652344 13.03871094 6.95117188 12.06054688 C6.9629989 9.70696935 6.97947975 7.35351523 7 5 C4.69 5 2.38 5 0 5 C0 3.35 0 1.7 0 0 Z " fill="#0E1436" transform="translate(302,305)"/>
<path d="M0 0 C3.125 0.375 3.125 0.375 6 1 C7 4 7 4 5.8125 6.5 C2.8627451 10.56862745 2.8627451 10.56862745 0 12 C-4.87756171 12.57594825 -8.67896442 12.46495439 -13 10 C-13 9.34 -13 8.68 -13 8 C-13.66 8 -14.32 8 -15 8 C-15.33 5.69 -15.66 3.38 -16 1 C-12.625 0.875 -12.625 0.875 -9 1 C-8.34 1.66 -7.68 2.32 -7 3 C-3.70285207 2.67028521 -2.3773161 2.3773161 0 0 Z " fill="#2E3858" transform="translate(257,196)"/>
<path d="M0 0 C4.62 0 9.24 0 14 0 C12.57293807 5.27181614 10.82519562 10.33806505 8.875 15.4375 C8.59785156 16.16904297 8.32070313 16.90058594 8.03515625 17.65429688 C7.3593001 19.43715878 6.68000921 21.218718 6 23 C5.34 22.01 4.68 21.02 4 20 C4.63525576 18.32110979 5.30686092 16.65583225 6 15 C6.28838457 10.84594326 6.28838457 10.84594326 5 7 C4.01 7.495 4.01 7.495 3 8 C2.34 7.67 1.68 7.34 1 7 C1.0825 7.928125 1.165 8.85625 1.25 9.8125 C1 13 1 13 -0.875 14.875 C-3 16 -3 16 -5 16 C-3.90301833 10.30860098 -2.45946923 5.25432063 0 0 Z " fill="#22284B" transform="translate(323,238)"/>
<path d="M0 0 C3.96 0 7.92 0 12 0 C12 0.33 12 0.66 12 1 C8.37 1 4.74 1 1 1 C1 11.23 1 21.46 1 32 C10.56771511 31.48984368 10.56771511 31.48984368 19 29 C18.67 30.32 18.34 31.64 18 33 C19.98 32.34 21.96 31.68 24 31 C24.4125 31.474375 24.825 31.94875 25.25 32.4375 C27.2004723 34.17899313 28.48852019 34.46553219 31 35 C25.94019835 39.75221493 21.27215082 43.72730952 14.0625 44.1875 C13.0415625 44.0946875 13.0415625 44.0946875 12 44 C15 42 15 42 19 42 C19 40.68 19 39.36 19 38 C18.34 37.34 17.68 36.68 17 36 C17.33 35.34 17.66 34.68 18 34 C17.34 34 16.68 34 16 34 C16 33.34 16 32.68 16 32 C15.01 32.495 15.01 32.495 14 33 C9.38 33 4.76 33 0 33 C0 22.11 0 11.22 0 0 Z " fill="#555C78" transform="translate(52,249)"/>
<path d="M0 0 C0.77085937 -0.01417969 1.54171875 -0.02835938 2.3359375 -0.04296875 C4.84334888 0.20948393 6.45761902 0.93556533 8.625 2.1875 C8.625 2.8475 8.625 3.5075 8.625 4.1875 C9.285 4.1875 9.945 4.1875 10.625 4.1875 C10.625 5.8375 10.625 7.4875 10.625 9.1875 C8.315 9.5175 6.005 9.8475 3.625 10.1875 C3.295 9.1975 2.965 8.2075 2.625 7.1875 C1.738125 7.496875 0.85125 7.80625 -0.0625 8.125 C-7.63936782 10.55531609 -7.63936782 10.55531609 -10.375 9.1875 C-9.87733954 5.50481261 -9.31214041 3.53721233 -6.375 1.1875 C-4.04904054 0.02452027 -2.58776769 0.02149309 0 0 Z " fill="#2B3457" transform="translate(252.375,183.8125)"/>
<path d="M0 0 C1.5 1.125 1.5 1.125 3 3 C3.46399316 7.26873706 2.68076276 10.11323613 1 14 C1 14.99 1 15.98 1 17 C0.34 17 -0.32 17 -1 17 C-1.33 18.32 -1.66 19.64 -2 21 C-2.99 20.67 -3.98 20.34 -5 20 C-5 19.01 -5 18.02 -5 17 C-5.99 16.67 -6.98 16.34 -8 16 C-8.99 16.99 -9.98 17.98 -11 19 C-10.98700582 15.90088878 -10.8470866 12.99160962 -10 10 C-7 8.3125 -7 8.3125 -4 7 C-3.02525184 3.91038542 -3.02525184 3.91038542 -3 1 C-2.01 0.67 -1.02 0.34 0 0 Z " fill="#101841" transform="translate(327,244)"/>
<path d="M0 0 C1.32 0.33 2.64 0.66 4 1 C3.67 9.25 3.34 17.5 3 26 C-1.30672725 24.92331819 -1.82233314 24.49877445 -4.3125 21.125 C-4.84488281 20.42632812 -5.37726563 19.72765625 -5.92578125 19.0078125 C-6.28027344 18.34523438 -6.63476562 17.68265625 -7 17 C-6.505 15.515 -6.505 15.515 -6 14 C-4.68 14 -3.36 14 -2 14 C-1.93941406 13.07316406 -1.87882813 12.14632813 -1.81640625 11.19140625 C-1.73261719 9.99386719 -1.64882812 8.79632813 -1.5625 7.5625 C-1.48128906 6.36753906 -1.40007812 5.17257812 -1.31640625 3.94140625 C-1 1 -1 1 0 0 Z " fill="#181D3C" transform="translate(178,305)"/>
<path d="M0 0 C0 1.32 0 2.64 0 4 C-10.89 4 -21.78 4 -33 4 C-33 2.68 -33 1.36 -33 0 C-28.62196815 -0.16750929 -24.24375401 -0.32807935 -19.86523438 -0.48217773 C-18.37525558 -0.53560003 -16.88534391 -0.59092962 -15.39550781 -0.64819336 C-13.25600663 -0.73009836 -11.11635907 -0.80517709 -8.9765625 -0.87890625 C-7.04417725 -0.94960327 -7.04417725 -0.94960327 -5.07275391 -1.02172852 C-2 -1 -2 -1 0 0 Z " fill="#545B70" transform="translate(132,314)"/>
<path d="M0 0 C2 1 2 1 2 1 Z M-2 1 C-1.34 1.33 -0.68 1.66 0 2 C-0.474375 2.556875 -0.94875 3.11375 -1.4375 3.6875 C-3.12395996 6.18346074 -3.58953107 8.0446237 -4 11 C-4.99 11 -5.98 11 -7 11 C-7.21914063 11.64195312 -7.43828125 12.28390625 -7.6640625 12.9453125 C-9 15 -9 15 -11.4609375 15.6796875 C-12.42257813 15.74414062 -13.38421875 15.80859375 -14.375 15.875 C-15.33148438 15.95492188 -16.28796875 16.03484375 -17.2734375 16.1171875 C-20.09202399 15.99604481 -21.61823299 15.4561514 -24 14 C-23 11 -23 11 -20.234375 9.61328125 C-18.50960937 8.96939453 -18.50960937 8.96939453 -16.75 8.3125 C-15.61046875 7.87550781 -14.4709375 7.43851562 -13.296875 6.98828125 C-10.29473805 6.08835157 -8.09885269 5.78447829 -5 6 C-4.67 5.01 -4.34 4.02 -4 3 C-3.34 2.34 -2.68 1.68 -2 1 Z " fill="#0B163E" transform="translate(266,279)"/>
<path d="M0 0 C10.89 0 21.78 0 33 0 C32.67 1.32 32.34 2.64 32 4 C21.44 4 10.88 4 0 4 C0 2.68 0 1.36 0 0 Z " fill="#4C546B" transform="translate(361,314)"/>
<path d="M0 0 C3.8718417 1.25573244 6.02838671 2.36808079 8 6 C8.45975673 9.06504484 8.23029222 10.55153621 6.8125 13.3125 C5 15 5 15 2.3125 15.25 C1.549375 15.1675 0.78625 15.085 0 15 C0 14.34 0 13.68 0 13 C-0.66 13 -1.32 13 -2 13 C-2 12.01 -2 11.02 -2 10 C-3.32 9.67 -4.64 9.34 -6 9 C-4 6 -2 3 0 0 Z " fill="#111F45" transform="translate(274,269)"/>
<path d="M0 0 C1.98 0.495 1.98 0.495 4 1 C4 8.92 4 16.84 4 25 C2.35 25 0.7 25 -1 25 C-1.02886984 21.02084841 -1.04675406 17.04172347 -1.0625 13.0625 C-1.07087891 11.92619141 -1.07925781 10.78988281 -1.08789062 9.61914062 C-1.09111328 8.53955078 -1.09433594 7.45996094 -1.09765625 6.34765625 C-1.10289307 5.34742432 -1.10812988 4.34719238 -1.11352539 3.31665039 C-1 1 -1 1 0 0 Z " fill="#111835" transform="translate(145,305)"/>
<path d="M0 0 C1.9375 0.3125 1.9375 0.3125 4 1 C4.33 1.99 4.66 2.98 5 4 C6.65 4.33 8.3 4.66 10 5 C9.67 6.65 9.34 8.3 9 10 C7.68 9.67 6.36 9.34 5 9 C4.67 10.32 4.34 11.64 4 13 C2.35 12.67 0.7 12.34 -1 12 C-0.67 10.35 -0.34 8.7 0 7 C-0.66 6.67 -1.32 6.34 -2 6 C-2.33 7.32 -2.66 8.64 -3 10 C-4.32 9.67 -5.64 9.34 -7 9 C-7.33 7.68 -7.66 6.36 -8 5 C-7.34 5 -6.68 5 -6 5 C-6 4.34 -6 3.68 -6 3 C-4.68 3.33 -3.36 3.66 -2 4 C-1.34 2.68 -0.68 1.36 0 0 Z " fill="#565E79" transform="translate(254,263)"/>
<path d="M0 0 C0 0.66 0 1.32 0 2 C-1.97440927 3.4631783 -3.93238871 4.80713064 -6 6.125 C-6.57234375 6.49753906 -7.1446875 6.87007812 -7.734375 7.25390625 C-9.15221782 8.17550408 -10.57560725 9.08855821 -12 10 C-12.99 9.34 -13.98 8.68 -15 8 C-14.01 8 -13.02 8 -12 8 C-12.33 7.01 -12.66 6.02 -13 5 C-13.99 5 -14.98 5 -16 5 C-16.763125 4.62875 -17.52625 4.2575 -18.3125 3.875 C-21.83357124 2.72860471 -23.65587902 3.6001354 -27 5 C-25.2823455 1.56469101 -21.67789362 1.04743906 -18.19921875 -0.17578125 C-12.23940268 -1.71121616 -5.87097495 -1.95699165 0 0 Z " fill="#0A1C43" transform="translate(261,163)"/>
<path d="M0 0 C0.33 0 0.66 0 1 0 C1.33 6.27 1.66 12.54 2 19 C13.22 19 24.44 19 36 19 C36 16.03 36 13.06 36 10 C34.68 10.33 33.36 10.66 32 11 C29.89355469 11.02172852 29.89355469 11.02172852 27.671875 10.87890625 C26.87265625 10.83056641 26.0734375 10.78222656 25.25 10.73242188 C24.425 10.67634766 23.6 10.62027344 22.75 10.5625 C21.90953125 10.51029297 21.0690625 10.45808594 20.203125 10.40429688 C18.1350648 10.27504311 16.0674778 10.13825726 14 10 C13.67 9.34 13.34 8.68 13 8 C16.81248426 7.97112764 20.6249407 7.95324508 24.4375 7.9375 C25.52611328 7.92912109 26.61472656 7.92074219 27.73632812 7.91210938 C28.77080078 7.90888672 29.80527344 7.90566406 30.87109375 7.90234375 C31.82943115 7.89710693 32.78776855 7.89187012 33.77514648 7.88647461 C36 8 36 8 37 9 C37 12.63 37 16.26 37 20 C25.12 20 13.24 20 1 20 C-0.1482685 17.703463 -0.11561175 16.41686833 -0.09765625 13.8671875 C-0.09443359 13.06152344 -0.09121094 12.25585938 -0.08789062 11.42578125 C-0.07951172 10.58402344 -0.07113281 9.74226563 -0.0625 8.875 C-0.05798828 8.02550781 -0.05347656 7.17601562 -0.04882812 6.30078125 C-0.03702874 4.20049091 -0.01909306 2.1002367 0 0 Z " fill="#536476" transform="translate(90,273)"/>
<path d="M0 0 C0.33 0.66 0.66 1.32 1 2 C1.66 2.33 2.32 2.66 3 3 C1.68 4.32 0.36 5.64 -1 7 C0.98 7.495 0.98 7.495 3 8 C2.67 7.01 2.34 6.02 2 5 C4.3125 3.4375 4.3125 3.4375 7 2 C7.99 2.33 8.98 2.66 10 3 C9.67 3.99 9.34 4.98 9 6 C9.185625 6.94875 9.37125 7.8975 9.5625 8.875 C10.05118575 12.36561251 9.73521495 13.96337383 8 17 C7.01 17.33 6.02 17.66 5 18 C2.08772731 14.71195019 0.50298788 12.40114397 0 8 C-0.66 8 -1.32 8 -2 8 C-2.125 5.125 -2.125 5.125 -2 2 C-1.34 1.34 -0.68 0.68 0 0 Z " fill="#1A284E" transform="translate(225,175)"/>
<path d="M0 0 C2.97 0 5.94 0 9 0 C9.33 0.99 9.66 1.98 10 3 C8.35 2.67 6.7 2.34 5 2 C4.5359375 3.175625 4.5359375 3.175625 4.0625 4.375 C3 7 3 7 2 9 C1.91065594 10.41973273 1.88241022 11.84357791 1.88647461 13.26611328 C1.88655014 14.14687531 1.88662567 15.02763733 1.88670349 15.93508911 C1.89186478 16.88721283 1.89702606 17.83933655 1.90234375 18.8203125 C1.9037587 19.79410858 1.90517365 20.76790466 1.90663147 21.77120972 C1.91224027 24.88917073 1.92479427 28.0070606 1.9375 31.125 C1.94251387 33.23567605 1.94707697 35.34635322 1.95117188 37.45703125 C1.96221255 42.63804521 1.97895927 47.81901752 2 53 C1.34 53 0.68 53 0 53 C0 35.51 0 18.02 0 0 Z " fill="#080E2F" transform="translate(178,239)"/>
<path d="M0 0 C3.63 0 7.26 0 11 0 C11.390625 7.51953125 11.390625 7.51953125 11 10 C8.51363669 12.47035668 7.41458313 12.96683335 3.875 13.25 C1 13 1 13 -1 12 C-1 11.34 -1 10.68 -1 10 C0.65 10 2.3 10 4 10 C4.33 8.02 4.66 6.04 5 4 C3.35 4 1.7 4 0 4 C0 2.68 0 1.36 0 0 Z " fill="#283250" transform="translate(249,317)"/>
<path d="M0 0 C2.0625 0.4375 2.0625 0.4375 4 1 C4.02901394 4.4374823 4.04680335 7.87493312 4.0625 11.3125 C4.07087891 12.28896484 4.07925781 13.26542969 4.08789062 14.27148438 C4.09111328 15.20927734 4.09433594 16.14707031 4.09765625 17.11328125 C4.10289307 17.97735596 4.10812988 18.84143066 4.11352539 19.73168945 C4 22 4 22 3 25 C1.68 25 0.36 25 -1 25 C-1.02886984 21.02084841 -1.04675406 17.04172347 -1.0625 13.0625 C-1.07087891 11.92619141 -1.07925781 10.78988281 -1.08789062 9.61914062 C-1.09111328 8.53955078 -1.09433594 7.45996094 -1.09765625 6.34765625 C-1.10289307 5.34742432 -1.10812988 4.34719238 -1.11352539 3.31665039 C-1 1 -1 1 0 0 Z " fill="#1D2142" transform="translate(223,305)"/>
<path d="M0 0 C0.66 0.66 1.32 1.32 2 2 C1.80673813 5.02776936 1.62170868 7.20770053 -0.28125 9.6328125 C-3.4182445 12.12814903 -7.09432429 12.25240761 -11 12 C-13.43708434 10.93996738 -14.94280797 9.74070095 -17 8 C-16.67 7.01 -16.34 6.02 -16 5 C-15.01 4.67 -14.02 4.34 -13 4 C-12.34 4.66 -11.68 5.32 -11 6 C-7.91652174 6.16681109 -7.91652174 6.16681109 -5 6 C-4.34 4.68 -3.68 3.36 -3 2 C-3 3.32 -3 4.64 -3 6 C-1.68 5.67 -0.36 5.34 1 5 C1 4.34 1 3.68 1 3 C0.01 3 -0.98 3 -2 3 C-1 1 -1 1 0 0 Z " fill="#474C6B" transform="translate(209,319)"/>
<path d="M0 0 C6.27 0 12.54 0 19 0 C19.33 1.65 19.66 3.3 20 5 C17.36 5 14.72 5 12 5 C12 11.6 12 18.2 12 25 C10.68 25.33 9.36 25.66 8 26 C7 25 7 25 6.88647461 23.05053711 C6.89432983 21.8015564 6.89432983 21.8015564 6.90234375 20.52734375 C6.90556641 19.62822266 6.90878906 18.72910156 6.91210938 17.80273438 C6.92048828 16.85720703 6.92886719 15.91167969 6.9375 14.9375 C6.94201172 13.98810547 6.94652344 13.03871094 6.95117188 12.06054688 C6.9629989 9.70696935 6.97947975 7.35351523 7 5 C7.33 5 7.66 5 8 5 C8 11.27 8 17.54 8 24 C8.66 23.67 9.32 23.34 10 23 C10.33 16.73 10.66 10.46 11 4 C11.66 4 12.32 4 13 4 C13 3.01 13 2.02 13 1 C8.71 1 4.42 1 0 1 C0 0.67 0 0.34 0 0 Z " fill="#777E97" transform="translate(302,305)"/>
<path d="M0 0 C1.32 0.33 2.64 0.66 4 1 C4 8.92 4 16.84 4 25 C2.68 25.33 1.36 25.66 0 26 C-1 25 -1 25 -1.09765625 22.71484375 C-1.04882812 18.85742188 -1.04882812 18.85742188 -1 15 C-4.63 15 -8.26 15 -12 15 C-12 18.63 -12 22.26 -12 26 C-13.32 25.67 -14.64 25.34 -16 25 C-15.01 25 -14.02 25 -13 25 C-13 21.37 -13 17.74 -13 14 C-8.71 14 -4.42 14 0 14 C0 17.3 0 20.6 0 24 C0.99 24 1.98 24 3 24 C2.67 17.07 2.34 10.14 2 3 C1.34 2.67 0.68 2.34 0 2 C0 4.97 0 7.94 0 11 C-3.96 11 -7.92 11 -12 11 C-12 10.67 -12 10.34 -12 10 C-8.37 10 -4.74 10 -1 10 C-1.020625 8.535625 -1.04125 7.07125 -1.0625 5.5625 C-1.08392007 4.04167482 -1.07179964 2.51928038 -1 1 C-0.67 0.67 -0.34 0.34 0 0 Z " fill="#7A8196" transform="translate(287,305)"/>
<path d="M0 0 C0.99 0.33 1.98 0.66 3 1 C4.32915021 8.97490128 4.08801359 16.94186719 4 25 C2.68 25 1.36 25 0 25 C0 16.75 0 8.5 0 0 Z " fill="#333A51" transform="translate(161,306)"/>
<path d="M0 0 C0.99 0.33 1.98 0.66 3 1 C3 7.93 3 14.86 3 22 C2.01 22 1.02 22 0 22 C0 18.7 0 15.4 0 12 C-3.96 12 -7.92 12 -12 12 C-7.09396701 8.32047526 -5.82490317 8.70875484 0 9 C0 6.03 0 3.06 0 0 Z " fill="#0B1030" transform="translate(287,307)"/>
<path d="M0 0 C2.4375 2 2.4375 2 4 4 C3.67 4.99 3.34 5.98 3 7 C-0.3 6.67 -3.6 6.34 -7 6 C-7.33 6.99 -7.66 7.98 -8 9 C-8.66 9 -9.32 9 -10 9 C-10.66 9.99 -11.32 10.98 -12 12 C-12.28780784 8.94923692 -12.42075247 6.04236398 -12 3 C-8.49634838 -0.50365162 -4.7798106 -0.60833953 0 0 Z " fill="#252949" transform="translate(344,305)"/>
<path d="M0 0 C0.77601563 0.09925781 1.55203125 0.19851563 2.3515625 0.30078125 C4.375 0.6875 4.375 0.6875 6.375 1.6875 C6.375 3.3375 6.375 4.9875 6.375 6.6875 C5.055 6.6875 3.735 6.6875 2.375 6.6875 C2.375 6.0275 2.375 5.3675 2.375 4.6875 C0.065 4.6875 -2.245 4.6875 -4.625 4.6875 C-4.955 5.6775 -5.285 6.6675 -5.625 7.6875 C-5.625 7.0275 -5.625 6.3675 -5.625 5.6875 C-7.95575929 6.64615509 -7.95575929 6.64615509 -9.625 9.6875 C-9.234375 3.6328125 -9.234375 3.6328125 -8.625 1.6875 C-5.69755453 -0.43977704 -3.50765678 -0.48684868 0 0 Z " fill="#262B4A" transform="translate(202.625,305.3125)"/>
<path d="M0 0 C0.66 0.33 1.32 0.66 2 1 C2.3181117 4.59466217 2.38020437 8.17004083 2.4609375 11.77734375 C2.63882813 12.84082031 2.81671875 13.90429688 3 15 C4.91629768 16.52354742 4.91629768 16.52354742 7 17 C7 17.99 7 18.98 7 20 C5.02 20.33 3.04 20.66 1 21 C0.67 20.01 0.34 19.02 0 18 C-1.98 18.33 -3.96 18.66 -6 19 C-5.67 17.68 -5.34 16.36 -5 15 C-3.68 14.67 -2.36 14.34 -1 14 C0.20568053 9.32798795 0.09382426 4.78503708 0 0 Z " fill="#0C1439" transform="translate(76,263)"/>
<path d="M0 0 C0.33 0 0.66 0 1 0 C1.125 5.75 1.125 5.75 0 8 C0.66 8.33 1.32 8.66 2 9 C1.34 9 0.68 9 0 9 C0.33 10.32 0.66 11.64 1 13 C0.01 13 -0.98 13 -2 13 C-2.33 13.66 -2.66 14.32 -3 15 C-5 14 -5 14 -6.1875 10.625 C-7 7 -7 7 -6 4 C-5.34 3.67 -4.68 3.34 -4 3 C-3.34 3.33 -2.68 3.66 -2 4 C-2 3.34 -2 2.68 -2 2 C-1.34 2 -0.68 2 0 2 C0 1.34 0 0.68 0 0 Z " fill="#0B143D" transform="translate(81,248)"/>
<path d="M0 0 C0.763125 0.391875 1.52625 0.78375 2.3125 1.1875 C3.3025 1.1875 4.2925 1.1875 5.3125 1.1875 C6 2.9375 6 2.9375 6.3125 5.1875 C5 7.4375 5 7.4375 3.3125 9.1875 C2.6525 9.1875 1.9925 9.1875 1.3125 9.1875 C1.3125 8.5275 1.3125 7.8675 1.3125 7.1875 C-0.0075 7.1875 -1.3275 7.1875 -2.6875 7.1875 C-2.6875 6.1975 -2.6875 5.2075 -2.6875 4.1875 C-5.3275 4.5175 -7.9675 4.8475 -10.6875 5.1875 C-10.0275 4.8575 -9.3675 4.5275 -8.6875 4.1875 C-8.6875 3.5275 -8.6875 2.8675 -8.6875 2.1875 C-3.37980769 -1.02180233 -3.37980769 -1.02180233 0 0 Z " fill="#0B1538" transform="translate(242.6875,165.8125)"/>
<path d="M0 0 C2.475 0.99 2.475 0.99 5 2 C3.2576496 6.18868077 1.23836868 7.37633263 -2.7578125 9.25 C-6.29089639 10.43179809 -9.30218911 10.26412935 -13 10 C-3.28571429 2 -3.28571429 2 0 2 C0 1.34 0 0.68 0 0 Z " fill="#8CBFC5" transform="translate(249,216)"/>
<path d="M0 0 C0 0.99 0 1.98 0 3 C-6.97154839 6.71931241 -11.99062134 8.15704664 -20 8 C-20 7.34 -20 6.68 -20 6 C-19.05125 5.71125 -18.1025 5.4225 -17.125 5.125 C-13.94788422 4.23174891 -13.94788422 4.23174891 -12 2 C-10 2 -8 2 -6 2 C-1.5 0 -1.5 0 0 0 Z " fill="#2B3254" transform="translate(272,288)"/>
<path d="M0 0 C0.5625 1.9375 0.5625 1.9375 1 4 C0.67 4.33 0.34 4.66 0 5 C0.020625 5.94875 0.04125 6.8975 0.0625 7.875 C0 11 0 11 -2 14 C-2.24270825 17.43307165 -2.24270825 17.43307165 -2.125 21.1875 C-2.10695312 22.45980469 -2.08890625 23.73210937 -2.0703125 25.04296875 C-2.04710937 26.01878906 -2.02390625 26.99460937 -2 28 C-2.66 28 -3.32 28 -4 28 C-6.65291243 18.0515784 -4.79816375 8.94203244 0 0 Z " fill="#64A6AF" transform="translate(231,248)"/>
<path d="M0 0 C0.33 0 0.66 0 1 0 C1 4.62 1 9.24 1 14 C2.65 14 4.3 14 6 14 C5.01 15.485 5.01 15.485 4 17 C2.68 17 1.36 17 0 17 C-4.0633856 9.97191247 -4.0633856 9.97191247 -3.8125 6.125 C-3 4 -3 4 -2 2 C-1.34 2 -0.68 2 0 2 C0 1.34 0 0.68 0 0 Z " fill="#4D949A" transform="translate(268,207)"/>
<path d="M0 0 C0.33 0 0.66 0 1 0 C1 4.62 1 9.24 1 14 C-8.19354839 14.61290323 -8.19354839 14.61290323 -12.125 11.625 C-14 9 -14 9 -14 7 C-11.6875 6.8125 -11.6875 6.8125 -9 7 C-7.97895449 7.97850195 -6.9793879 8.97980427 -6 10 C-4.35 10.33 -2.7 10.66 -1 11 C-0.67 7.37 -0.34 3.74 0 0 Z " fill="#50546A" transform="translate(223,279)"/>
<path d="M0 0 C0.66 0.33 1.32 0.66 2 1 C2 1.66 2 2.32 2 3 C2.639375 3.185625 3.27875 3.37125 3.9375 3.5625 C6 5 6 5 6.75 8.625 C6.87375 10.295625 6.87375 10.295625 7 12 C3.7 12 0.4 12 -3 12 C-2.67 11.01 -2.34 10.02 -2 9 C-1.34 9.33 -0.68 9.66 0 10 C0 8.906875 0 7.81375 0 6.6875 C0 4.45833333 0 2.22916667 0 0 Z " fill="#0E143B" transform="translate(376,280)"/>
<path d="M0 0 C0.99 0.66 1.98 1.32 3 2 C0.31158141 4.25245881 -1.64641875 5.88213958 -5 7 C-4.01 7.99 -3.02 8.98 -2 10 C-8.435 10.495 -8.435 10.495 -15 11 C-11.72782865 7.72782865 -9.10962142 5.63928945 -5.25 3.25 C-4.26515625 2.63640625 -3.2803125 2.0228125 -2.265625 1.390625 C-1.51796875 0.93171875 -0.7703125 0.4728125 0 0 Z " fill="#5092A5" transform="translate(261,164)"/>
<path d="M0 0 C-0.33 1.65 -0.66 3.3 -1 5 C-2.32 4.67 -3.64 4.34 -5 4 C-5.33 5.32 -5.66 6.64 -6 8 C-7.65 7.67 -9.3 7.34 -11 7 C-10.8125 4.6875 -10.8125 4.6875 -10 2 C-6.46899884 -0.94250097 -4.36267794 -1.37112735 0 0 Z " fill="#666880" transform="translate(264,268)"/>
<path d="M0 0 C0.66 0.33 1.32 0.66 2 1 C1.34 1.66 0.68 2.32 0 3 C0.32326553 6.59679066 0.32326553 6.59679066 1 10 C-0.32 10 -1.64 10 -3 10 C-3 9.34 -3 8.68 -3 8 C-4.98 8 -6.96 8 -9 8 C-8.74609375 6.14453125 -8.74609375 6.14453125 -8 4 C-6.22265625 2.69921875 -6.22265625 2.69921875 -4.0625 1.6875 C-3.35222656 1.34074219 -2.64195312 0.99398437 -1.91015625 0.63671875 C-1.27980469 0.42660156 -0.64945313 0.21648437 0 0 Z " fill="#0D153D" transform="translate(246,237)"/>
<path d="M0 0 C0.33 0.66 0.66 1.32 1 2 C0.34 2 -0.32 2 -1 2 C-0.62746094 2.55429688 -0.25492188 3.10859375 0.12890625 3.6796875 C0.60199219 4.40414062 1.07507813 5.12859375 1.5625 5.875 C2.27599609 6.95394531 2.27599609 6.95394531 3.00390625 8.0546875 C3.49697266 9.01761719 3.49697266 9.01761719 4 10 C3.67 10.66 3.34 11.32 3 12 C0.36 12 -2.28 12 -5 12 C-5.33 11.01 -5.66 10.02 -6 9 C-5.34 9 -4.68 9 -4 9 C-4.0825 8.2575 -4.165 7.515 -4.25 6.75 C-3.92894816 3.21842973 -2.64734383 2.23369636 0 0 Z " fill="#4296A2" transform="translate(236,243)"/>
<path d="M0 0 C2.475 0.99 2.475 0.99 5 2 C5.33 1.34 5.66 0.68 6 0 C6 0.99 6 1.98 6 3 C6.66 3 7.32 3 8 3 C8.33 2.34 8.66 1.68 9 1 C9.33 2.32 9.66 3.64 10 5 C10.66 5 11.32 5 12 5 C12 5.66 12 6.32 12 7 C13.32 7.33 14.64 7.66 16 8 C14.58376784 8.05447047 13.16691809 8.09300508 11.75 8.125 C10.96109375 8.14820313 10.1721875 8.17140625 9.359375 8.1953125 C6.79268059 7.9828378 5.2083933 7.28654105 3 6 C3 5.34 3 4.68 3 4 C2.34 4 1.68 4 1 4 C0.67 2.68 0.34 1.36 0 0 Z " fill="#2B3456" transform="translate(241,200)"/>
<path d="M0 0 C2.04136395 -0.05451714 4.08315856 -0.09302485 6.125 -0.125 C7.83042969 -0.15980469 7.83042969 -0.15980469 9.5703125 -0.1953125 C13.05757767 0.00327891 15.7553862 0.7475199 19 2 C18.67 3.32 18.34 4.64 18 6 C15.69 6.66 13.38 7.32 11 8 C10.67 7.01 10.34 6.02 10 5 C10.66 4.01 11.32 3.02 12 2 C8.04 1.67 4.08 1.34 0 1 C0 0.67 0 0.34 0 0 Z " fill="#3F4A6A" transform="translate(249,236)"/>
<path d="M0 0 C0.66 0 1.32 0 2 0 C2.93423645 3.01031744 3.04449911 3.86650268 2 7 C1.59986491 13.00202636 2.31592987 16.63185975 5 22 C4.34 22.33 3.68 22.66 3 23 C3 22.34 3 21.68 3 21 C2.01 20.67 1.02 20.34 0 20 C-2.31950958 14.00126833 -1.28921284 6.12376101 0 0 Z " fill="#64A4B0" transform="translate(239,255)"/>
<path d="M0 0 C4.17882671 2.56428003 7.12505529 5.01930733 10 9 C7.33333333 8.33333333 4.66666667 7.66666667 2 7 C1.01 8.32 0.02 9.64 -1 11 C-2.32 10.01 -3.64 9.02 -5 8 C-4.34 7.34 -3.68 6.68 -3 6 C-2.01 6 -1.02 6 0 6 C0 4.02 0 2.04 0 0 Z " fill="#56A2AC" transform="translate(270,240)"/>
<path d="M0 0 C1.98 0.495 1.98 0.495 4 1 C4 8.92 4 16.84 4 25 C3.67 25 3.34 25 3 25 C2.67 17.74 2.34 10.48 2 3 C1.34 3 0.68 3 0 3 C0 8.61 0 14.22 0 20 C-0.33 20 -0.66 20 -1 20 C-1.02888514 16.85418577 -1.04675923 13.70840531 -1.0625 10.5625 C-1.07087891 9.66466797 -1.07925781 8.76683594 -1.08789062 7.84179688 C-1.09111328 6.98779297 -1.09433594 6.13378906 -1.09765625 5.25390625 C-1.10551147 4.06776733 -1.10551147 4.06776733 -1.11352539 2.85766602 C-1 1 -1 1 0 0 Z " fill="#7B8297" transform="translate(145,305)"/>
<path d="M0 0 C-0.33214151 3.09998746 -1.0545012 4.0545012 -3.3125 6.3125 C-6 8 -6 8 -8.125 7.8125 C-8.74375 7.544375 -9.3625 7.27625 -10 7 C-10.99 6.67 -11.98 6.34 -13 6 C-12 3 -12 3 -9.78515625 1.796875 C-8.43744141 1.27867187 -8.43744141 1.27867187 -7.0625 0.75 C-6.16660156 0.39421875 -5.27070313 0.0384375 -4.34765625 -0.328125 C-2 -1 -2 -1 0 0 Z " fill="#0A2346" transform="translate(255,287)"/>
<path d="M0 0 C0 0.33 0 0.66 0 1 C-3.3 1.66 -6.6 2.32 -10 3 C-10.33 4.32 -10.66 5.64 -11 7 C-11.66 6.46375 -12.32 5.9275 -13 5.375 C-17.32408255 3.39312883 -19.54535291 4.56545263 -24 6 C-22.28391859 2.56783718 -18.68408387 2.05095492 -15.2109375 0.8203125 C-10.12903196 -0.47798454 -5.20358416 -0.32692675 0 0 Z " fill="#58617E" transform="translate(258,162)"/>
<path d="M0 0 C6.43014706 0.48529412 6.43014706 0.48529412 8.9375 2.75 C10.16717908 5.35402628 10.23723981 7.15312226 10 10 C7.1157546 9.65514457 6.1792182 9.21744593 4.296875 6.93359375 C3.78640625 6.10988281 3.2759375 5.28617187 2.75 4.4375 C2.22921875 3.61121094 1.7084375 2.78492188 1.171875 1.93359375 C0.78515625 1.29550781 0.3984375 0.65742188 0 0 Z " fill="#343959" transform="translate(171,321)"/>
<path d="M0 0 C0.66 0 1.32 0 2 0 C2.04898438 0.73605469 2.09796875 1.47210938 2.1484375 2.23046875 C2.22320312 3.20628906 2.29796875 4.18210938 2.375 5.1875 C2.44460937 6.15042969 2.51421875 7.11335937 2.5859375 8.10546875 C3.00268022 11.01873624 3.90061164 13.28817539 5 16 C4.625 18.8125 4.625 18.8125 4 21 C0.551983 17.551983 0.06326554 13.58361565 -0.125 8.87109375 C-0.125 5.91138362 -0.08743829 2.95832884 0 0 Z " fill="#6FACB0" transform="translate(218,189)"/>
<path d="M0 0 C2.33595238 0.31445513 4.66905466 0.6503582 7 1 C8.1446875 1.1546875 8.1446875 1.1546875 9.3125 1.3125 C11 2 11 2 13 6 C9.04 6 5.08 6 1 6 C0.67 4.02 0.34 2.04 0 0 Z " fill="#151B3C" transform="translate(144,287)"/>
<path d="M0 0 C1.32 0.33 2.64 0.66 4 1 C4.12375 2.134375 4.2475 3.26875 4.375 4.4375 C4.684375 6.2009375 4.684375 6.2009375 5 8 C5.66 8.33 6.32 8.66 7 9 C6.34 9 5.68 9 5 9 C5.33 12.96 5.66 16.92 6 21 C5.34 21 4.68 21 4 21 C4 21.66 4 22.32 4 23 C2.68 23.33 1.36 23.66 0 24 C0.32484375 23.14728516 0.32484375 23.14728516 0.65625 22.27734375 C3.69755486 13.84335481 3.46046135 8.2185957 0 0 Z " fill="#51576F" transform="translate(71,254)"/>
<path d="M0 0 C7.59 0 15.18 0 23 0 C23 0.66 23 1.32 23 2 C20.09330538 2.85305168 17.68951127 3.07289715 14.671875 2.87890625 C13.87265625 2.83056641 13.0734375 2.78222656 12.25 2.73242188 C11.425 2.67634766 10.6 2.62027344 9.75 2.5625 C8.90953125 2.51029297 8.0690625 2.45808594 7.203125 2.40429688 C5.1350648 2.27504311 3.0674778 2.13825726 1 2 C0.67 1.34 0.34 0.68 0 0 Z " fill="#71748A" transform="translate(103,281)"/>
<path d="M0 0 C1.1725131 0.95117134 2.33787015 1.91117009 3.5 2.875 C4.47453125 3.67550781 4.47453125 3.67550781 5.46875 4.4921875 C6.22671875 5.23855469 6.22671875 5.23855469 7 6 C7 6.66 7 7.32 7 8 C8.65 7.67 10.3 7.34 12 7 C10.8125 8.5625 10.8125 8.5625 9 10 C3.80454871 10.14431809 0.54870814 6.34417164 -3 3 C-2.01 2.01 -1.02 1.02 0 0 Z " fill="#5DA4AD" transform="translate(229,215)"/>
<path d="M0 0 C3.3 0.99 6.6 1.98 10 3 C10 3.33 10 3.66 10 4 C8.35 4.33 6.7 4.66 5 5 C7.475 5.99 7.475 5.99 10 7 C10 7.33 10 7.66 10 8 C1.42857143 7.28571429 1.42857143 7.28571429 -2 4 C-1.34 2.68 -0.68 1.36 0 0 Z " fill="#6A7186" transform="translate(332,323)"/>
<path d="M0 0 C0.66 0 1.32 0 2 0 C3.6875 2.3125 3.6875 2.3125 5 5 C4 8 4 8 2 9 C-1.5 9.1875 -1.5 9.1875 -5 9 C-5.66 8.34 -6.32 7.68 -7 7 C-4.69 6.01 -2.38 5.02 0 4 C0 2.68 0 1.36 0 0 Z " fill="#424866" transform="translate(343,321)"/>
<path d="M0 0 C0.66 0.33 1.32 0.66 2 1 C1.34 2.65 0.68 4.3 0 6 C0.66 5.67 1.32 5.34 2 5 C3.99960012 4.960008 6.00047242 4.95653201 8 5 C7.38125 5.28875 6.7625 5.5775 6.125 5.875 C3.86674235 6.93720042 3.86674235 6.93720042 2 9 C-1.125 8.625 -1.125 8.625 -4 8 C-3.50168276 4.31245243 -2.89932357 2.39509338 0 0 Z " fill="#48506B" transform="translate(246,185)"/>
<path d="M0 0 C6.4 -0.49230769 6.4 -0.49230769 9.4375 2 C10.2109375 2.99 10.2109375 2.99 11 4 C10.67 4.99 10.34 5.98 10 7 C6.7 6.67 3.4 6.34 0 6 C0 5.01 0 4.02 0 3 C1.32 2.67 2.64 2.34 4 2 C2.68 1.34 1.36 0.68 0 0 Z " fill="#4D526E" transform="translate(337,305)"/>
<path d="M0 0 C4.875 4.75 4.875 4.75 6 7 C4.824375 7.12375 4.824375 7.12375 3.625 7.25 C0.85955198 7.71525923 0.85955198 7.71525923 -0.1875 10 C-0.455625 10.66 -0.72375 11.32 -1 12 C-1.99 12.495 -1.99 12.495 -3 13 C-2.45144652 8.428721 -1.58255197 4.32564205 0 0 Z " fill="#18344E" transform="translate(272,263)"/>
<path d="M0 0 C1.67542976 0.28604898 3.34385343 0.61781233 5 1 C4.01 1.495 4.01 1.495 3 2 C3.66 4.64 4.32 7.28 5 10 C3.02 10 1.04 10 -1 10 C-1.02689216 8.52093108 -1.04634621 7.04172517 -1.0625 5.5625 C-1.07410156 4.73878906 -1.08570313 3.91507813 -1.09765625 3.06640625 C-1 1 -1 1 0 0 Z " fill="#2E354B" transform="translate(378,239)"/>
<path d="M0 0 C1.875 0.25 1.875 0.25 4 1 C5.3125 2.8125 5.3125 2.8125 6 5 C5.69077102 6.33912894 5.35472685 7.67219815 5 9 C4.77609683 11.75317974 4.58606338 14.49305329 4.4375 17.25 C4.39431641 17.99507813 4.35113281 18.74015625 4.30664062 19.5078125 C4.20103275 21.338349 4.10005799 23.16915176 4 25 C3.67 25 3.34 25 3 25 C2.98018066 24.42032471 2.96036133 23.84064941 2.93994141 23.2434082 C2.84427399 20.59934063 2.73476547 17.9560183 2.625 15.3125 C2.5940625 14.40048828 2.563125 13.48847656 2.53125 12.54882812 C2.33223046 7.98796369 2.14309878 4.13809725 0 0 Z " fill="#67708B" transform="translate(162,305)"/>
<path d="M0 0 C6.27 0 12.54 0 19 0 C19.33 1.32 19.66 2.64 20 4 C17.69 4 15.38 4 13 4 C13 3.01 13 2.02 13 1 C8.71 1 4.42 1 0 1 C0 0.67 0 0.34 0 0 Z " fill="#818593" transform="translate(302,305)"/>
<path d="M0 0 C0.33 0.66 0.66 1.32 1 2 C0.06421005 4.35981813 -0.93347808 6.69631264 -2 9 C-6.29 9 -10.58 9 -15 9 C-14.67 8.34 -14.34 7.68 -14 7 C-11.36 7 -8.72 7 -6 7 C-5.67 5.35 -5.34 3.7 -5 2 C-4.360625 1.855625 -3.72125 1.71125 -3.0625 1.5625 C-1.02454854 1.18992819 -1.02454854 1.18992819 0 0 Z " fill="#313651" transform="translate(318,284)"/>
<path d="M0 0 C3.07660604 3.07660604 2.98253612 5.34335819 3.09765625 9.671875 C3.09105717 11.03128449 3.07920246 12.3906771 3.0625 13.75 C3.05798828 14.44738281 3.05347656 15.14476562 3.04882812 15.86328125 C3.0371002 17.57555803 3.01916653 19.28779033 3 21 C1.10141035 18.15211552 0.702033 17.22812408 0.33203125 14.0234375 C0.24373047 13.270625 0.15542969 12.5178125 0.06445312 11.7421875 C-0.01869141 10.96101562 -0.10183594 10.17984375 -0.1875 9.375 C-0.32961914 8.19164062 -0.32961914 8.19164062 -0.47460938 6.984375 C-0.69855886 4.99447274 -0.85493995 2.99720354 -1 1 C-0.67 0.67 -0.34 0.34 0 0 Z " fill="#6AA7AD" transform="translate(282,182)"/>
<path d="M0 0 C-0.66 1.32 -1.32 2.64 -2 4 C-1.34 4.33 -0.68 4.66 0 5 C-4.29 5 -8.58 5 -13 5 C-12.01 4.67 -11.02 4.34 -10 4 C-10 3.34 -10 2.68 -10 2 C-8.71211992 1.46987262 -7.41953322 0.9511671 -6.125 0.4375 C-5.40570313 0.14746094 -4.68640625 -0.14257812 -3.9453125 -0.44140625 C-2 -1 -2 -1 0 0 Z " fill="#5F94A6" transform="translate(262,245)"/>
<path d="M0 0 C-0.9375 1.875 -0.9375 1.875 -3 4 C-5.95485056 4.95351561 -8.9369519 5.51196718 -12 6 C-12 4.35 -12 2.7 -12 1 C-10.37681021 0.63762737 -8.7513642 0.28534843 -7.125 -0.0625 C-6.22007812 -0.25972656 -5.31515625 -0.45695312 -4.3828125 -0.66015625 C-2 -1 -2 -1 0 0 Z " fill="#49768E" transform="translate(264,281)"/>
<path d="M0 0 C1.32 0.33 2.64 0.66 4 1 C4 2.32 4 3.64 4 5 C0.91190305 6.76462683 -0.23312136 7 -4 7 C-4.33 7.66 -4.66 8.32 -5 9 C-4.42647107 5.12867972 -2.51295648 2.91827204 0 0 Z " fill="#0A1E45" transform="translate(256,240)"/>
<path d="M0 0 C0.99773437 0.02320313 1.99546875 0.04640625 3.0234375 0.0703125 C4.52777344 0.09738281 4.52777344 0.09738281 6.0625 0.125 C6.83335937 0.14820313 7.60421875 0.17140625 8.3984375 0.1953125 C8.3984375 0.5253125 8.3984375 0.8553125 8.3984375 1.1953125 C7.4496875 1.2984375 6.5009375 1.4015625 5.5234375 1.5078125 C2.10736249 1.88070545 2.10736249 1.88070545 0.3984375 5.1953125 C-2.2265625 6.3828125 -2.2265625 6.3828125 -4.6015625 7.1953125 C-4.7265625 4.8203125 -4.7265625 4.8203125 -4.6015625 2.1953125 C-2.6015625 0.1953125 -2.6015625 0.1953125 0 0 Z " fill="#12183A" transform="translate(167.6015625,238.8046875)"/>
<path d="M0 0 C2.64 0 5.28 0 8 0 C7.01 0.66 6.02 1.32 5 2 C5.99 3.485 5.99 3.485 7 5 C0.375 6 0.375 6 -3 6 C-2.01 4.02 -1.02 2.04 0 0 Z " fill="#0B1339" transform="translate(248,185)"/>
<path d="M0 0 C0.99 0 1.98 0 3 0 C2.37321829 3.66172475 1.35548154 6.8818995 -0.0625 10.3125 C-0.42472656 11.19550781 -0.78695313 12.07851563 -1.16015625 12.98828125 C-1.43730469 13.65214844 -1.71445312 14.31601562 -2 15 C-2.66 14.01 -3.32 13.02 -4 12 C-3.25 9.75 -3.25 9.75 -2 7 C-1.31320058 4.67251306 -0.64238957 2.34013344 0 0 Z " fill="#414965" transform="translate(331,246)"/>
<path d="M0 0 C0.33 0 0.66 0 1 0 C1.3690205 12.66970387 1.3690205 12.66970387 -1 18 C-3 15 -3 15 -4 12 C-3.01 12 -2.02 12 -1 12 C-1.01160156 11.30132812 -1.02320313 10.60265625 -1.03515625 9.8828125 C-1.04417969 8.97273438 -1.05320312 8.06265625 -1.0625 7.125 C-1.07410156 6.22007812 -1.08570313 5.31515625 -1.09765625 4.3828125 C-1 2 -1 2 0 0 Z " fill="#699DA7" transform="translate(284,260)"/>
<path d="M0 0 C0.66 0 1.32 0 2 0 C2 0.66 2 1.32 2 2 C2.66 2.33 3.32 2.66 4 3 C6.15974453 6.43959315 7.0665087 8.28170605 6.6875 12.375 C6.460625 13.24125 6.23375 14.1075 6 15 C3.75848118 12.75848118 3.03698675 10.9932888 1.875 8.0625 C1.52179688 7.18722656 1.16859375 6.31195313 0.8046875 5.41015625 C0 3 0 3 0 0 Z " fill="#474E68" transform="translate(289,256)"/>
<path d="M0 0 C0.66 0 1.32 0 2 0 C2 0.66 2 1.32 2 2 C2.66 2 3.32 2 4 2 C6 5 6 5 6 8 C5.01 7.67 4.02 7.34 3 7 C3 6.34 3 5.68 3 5 C1.68 5.33 0.36 5.66 -1 6 C-1 2 -1 2 0 0 Z M-3 6 C-2.34 6 -1.68 6 -1 6 C-1.33 6.66 -1.66 7.32 -2 8 C-2.33 7.34 -2.66 6.68 -3 6 Z " fill="#0E163E" transform="translate(187,256)"/>
<path d="M0 0 C2.18993607 2.18993607 2.72197989 3.5987298 3.6875 6.5 C3.95949219 7.2940625 4.23148437 8.088125 4.51171875 8.90625 C5 11 5 11 4 13 C2.35 12.67 0.7 12.34 -1 12 C-0.835 10.948125 -0.67 9.89625 -0.5 8.8125 C-0.10430322 5.79531204 0.09178971 3.02906028 0 0 Z " fill="#434C69" transform="translate(299,248)"/>
<path d="M0 0 C0.99 0 1.98 0 3 0 C3 3.3 3 6.6 3 10 C-3.6 10 -10.2 10 -17 10 C-17 9.67 -17 9.34 -17 9 C-8.585 8.505 -8.585 8.505 0 8 C0.66 5.69 1.32 3.38 2 1 C1.34 0.67 0.68 0.34 0 0 Z " fill="#0B122C" transform="translate(456,239)"/>
<path d="M0 0 C3.8063457 0.67170806 7.35206816 1.72746564 11 3 C10.01 3.66 9.02 4.32 8 5 C8 4.34 8 3.68 8 3 C7.4225 3.515625 6.845 4.03125 6.25 4.5625 C4 6 4 6 1.75 5.6875 C1.1725 5.460625 0.595 5.23375 0 5 C0 3.35 0 1.7 0 0 Z " fill="#404461" transform="translate(333,313)"/>
<path d="M0 0 C0.66 0.33 1.32 0.66 2 1 C1.67 1.99 1.34 2.98 1 4 C1.639375 4.226875 2.27875 4.45375 2.9375 4.6875 C5 6 5 6 5.75 8.625 C5.8325 9.40875 5.915 10.1925 6 11 C5.67 10.34 5.34 9.68 5 9 C2.47266765 8.34444881 2.47266765 8.34444881 0 8 C0.33 7.01 0.66 6.02 1 5 C0.34 5 -0.32 5 -1 5 C-1.33 3.68 -1.66 2.36 -2 1 C-1.34 0.67 -0.68 0.34 0 0 Z M3 3 C5 4 5 4 5 4 Z " fill="#252C51" transform="translate(69,278)"/>
<path d="M0 0 C0.66 0 1.32 0 2 0 C1 3 0 6 -1 9 C-1.99 8.34 -2.98 7.68 -4 7 C-4.99 7 -5.98 7 -7 7 C-7 5.68 -7 4.36 -7 3 C-5.68 3.33 -4.36 3.66 -3 4 C-2.54625 3.34 -2.0925 2.68 -1.625 2 C-1.08875 1.34 -0.5525 0.68 0 0 Z " fill="#3EA0A9" transform="translate(272,246)"/>
<path d="M0 0 C4.29 0 8.58 0 13 0 C13 1.65 13 3.3 13 5 C12.34 4.34 11.68 3.68 11 3 C8.85856259 2.71937674 8.85856259 2.71937674 6.5 2.8125 C5.7059375 2.81894531 4.911875 2.82539063 4.09375 2.83203125 C1.94163609 2.87324164 1.94163609 2.87324164 0 4 C0 2.68 0 1.36 0 0 Z " fill="#343B53" transform="translate(349,238)"/>
<path d="M0 0 C0.66 0 1.32 0 2 0 C2 0.66 2 1.32 2 2 C2.66 2 3.32 2 4 2 C4 3.65 4 5.3 4 7 C1.69 7.33 -0.62 7.66 -3 8 C-3.33 7.34 -3.66 6.68 -4 6 C-2.55245745 4.55245745 -0.96037087 4.44266439 1 4 C0.67 2.68 0.34 1.36 0 0 Z " fill="#596176" transform="translate(259,186)"/>
<path d="M0 0 C0.66 0 1.32 0 2 0 C2.33 1.98 2.66 3.96 3 6 C3.99 6.33 4.98 6.66 6 7 C6 7.33 6 7.66 6 8 C3.625 8.125 3.625 8.125 1 8 C-1 6 -1 6 -1.1875 3.4375 C-1 1 -1 1 0 0 Z " fill="#1E223F" transform="translate(195,311)"/>
<path d="M0 0 C0.66 0 1.32 0 2 0 C2 0.66 2 1.32 2 2 C2.66 2 3.32 2 4 2 C4 2.66 4 3.32 4 4 C5.98 4 7.96 4 10 4 C10 4.33 10 4.66 10 5 C6.37 5.33 2.74 5.66 -1 6 C-0.67 4.02 -0.34 2.04 0 0 Z " fill="#0E1332" transform="translate(329,287)"/>
<path d="M0 0 C2.0625 0.4375 2.0625 0.4375 4 1 C3.67 2.65 3.34 4.3 3 6 C1.02 6 -0.96 6 -3 6 C-1.125 1.125 -1.125 1.125 0 0 Z " fill="#4E5068" transform="translate(254,263)"/>
<path d="M0 0 C1.2065625 0.0309375 1.2065625 0.0309375 2.4375 0.0625 C2.7675 1.0525 3.0975 2.0425 3.4375 3.0625 C3.1075 3.7225 2.7775 4.3825 2.4375 5.0625 C0.7875 5.0625 -0.8625 5.0625 -2.5625 5.0625 C-3.125 3.125 -3.125 3.125 -3.5625 1.0625 C-2.5625 0.0625 -2.5625 0.0625 0 0 Z " fill="#454D64" transform="translate(249.5625,259.9375)"/>
<path d="M0 0 C1.08667969 0.01804688 2.17335938 0.03609375 3.29296875 0.0546875 C4.54013672 0.08949219 4.54013672 0.08949219 5.8125 0.125 C5.1525 0.785 4.4925 1.445 3.8125 2.125 C2.678125 2.08375 1.54375 2.0425 0.375 2 C-1.3884375 2.061875 -1.3884375 2.061875 -3.1875 2.125 C-5.03065671 4.0254467 -5.03065671 4.0254467 -6.1875 6.125 C-6.8475 6.125 -7.5075 6.125 -8.1875 6.125 C-8.5175 4.805 -8.8475 3.485 -9.1875 2.125 C-5.66070901 -0.22619399 -4.15870515 -0.08943452 0 0 Z " fill="#0B1233" transform="translate(254.1875,236.875)"/>
<path d="M0 0 C4.29 0 8.58 0 13 0 C12 2 12 2 10.4375 2.625 C6.93601819 3.16368951 3.54193167 3.05903219 0 3 C0 2.01 0 1.02 0 0 Z " fill="#09112F" transform="translate(302,306)"/>
<path d="M0 0 C0 2.31 0 4.62 0 7 C0.66 7 1.32 7 2 7 C2.33 5.68 2.66 4.36 3 3 C3 4.65 3 6.3 3 8 C0.6875 7.875 0.6875 7.875 -2 7 C-3.8125 3.9375 -3.8125 3.9375 -5 1 C-1.125 0 -1.125 0 0 0 Z " fill="#4792A1" transform="translate(280,264)"/>
<path d="M0 0 C0.66 0 1.32 0 2 0 C2.05389087 1.95803507 2.09274217 3.91648909 2.125 5.875 C2.14820313 6.96554688 2.17140625 8.05609375 2.1953125 9.1796875 C2 12 2 12 0 14 C-1.125 7.25 -1.125 7.25 0 5 C0.0396713 3.33380554 0.04384447 1.66608987 0 0 Z " fill="#0C153A" transform="translate(434,249)"/>
<path d="M0 0 C0.33 0 0.66 0 1 0 C1.10824843 1.6026782 1.18570645 3.20745748 1.25 4.8125 C1.29640625 5.70582031 1.3428125 6.59914063 1.390625 7.51953125 C1 10 1 10 -0.828125 11.88671875 C-1.54484375 12.25410156 -2.2615625 12.62148438 -3 13 C-3.99 12.67 -4.98 12.34 -6 12 C-5.34 12 -4.68 12 -4 12 C-4 11.01 -4 10.02 -4 9 C-3.34 9 -2.68 9 -2 9 C-2 8.34 -2 7.68 -2 7 C-1.34 7 -0.68 7 0 7 C0 4.69 0 2.38 0 0 Z " fill="#626D8B" transform="translate(259,317)"/>
<path d="M0 0 C2.51083114 1.25541557 2.87125446 2.50063488 4 5 C4.66 3.35 5.32 1.7 6 0 C6.66 0.99 7.32 1.98 8 3 C7.1875 4.9375 7.1875 4.9375 6 7 C5.01 7.33 4.02 7.66 3 8 C2.01 7.34 1.02 6.68 0 6 C-0.1875 2.875 -0.1875 2.875 0 0 Z " fill="#484E67" transform="translate(306,268)"/>
<path d="M0 0 C0.99 0.66 1.98 1.32 3 2 C0.12835434 4.70272533 -1.30991841 5.94791837 -5.3125 6.25 C-6.199375 6.1675 -7.08625 6.085 -8 6 C-5.38485683 3.87961365 -2.80362384 1.86908256 0 0 Z " fill="#468F9D" transform="translate(261,164)"/>
<path d="M0 0 C3 2 3 2 3.6875 4.125 C3.790625 4.74375 3.89375 5.3625 4 6 C2.35 6 0.7 6 -1 6 C-1.66 4.68 -2.32 3.36 -3 2 C-2.01 1.34 -1.02 0.68 0 0 Z " fill="#3E4456" transform="translate(195,323)"/>
<path d="M0 0 C0.66 0 1.32 0 2 0 C4.56687367 3.8503105 3.83288724 5.58569763 3 10 C1.68 9.67 0.36 9.34 -1 9 C-0.34 8.67 0.32 8.34 1 8 C0.67 5.36 0.34 2.72 0 0 Z " fill="#1C2B4E" transform="translate(223,320)"/>
<path d="M0 0 C1.32 0.66 2.64 1.32 4 2 C3.67 3.32 3.34 4.64 3 6 C1.35 5.67 -0.3 5.34 -2 5 C-1.125 1.125 -1.125 1.125 0 0 Z " fill="#4C576C" transform="translate(260,259)"/>
<path d="M0 0 C1.32 0 2.64 0 4 0 C4 1.65 4 3.3 4 5 C2.68 5.33 1.36 5.66 0 6 C-0.38218767 4.34385343 -0.71395102 2.67542976 -1 1 C-0.67 0.67 -0.34 0.34 0 0 Z " fill="#515770" transform="translate(254,256)"/>
<path d="M0 0 C0.33 0 0.66 0 1 0 C1 4.29 1 8.58 1 13 C-0.32 13.33 -1.64 13.66 -3 14 C-3 13.34 -3 12.68 -3 12 C-3.99 11.67 -4.98 11.34 -6 11 C-4.35 10.67 -2.7 10.34 -1 10 C-0.67 6.7 -0.34 3.4 0 0 Z " fill="#252A48" transform="translate(177,309)"/>
<path d="M0 0 C1.9375 0.8125 1.9375 0.8125 4 2 C4.33 2.99 4.66 3.98 5 5 C5.226875 5.66 5.45375 6.32 5.6875 7 C6 9 6 9 4 12 C3.3291288 10.3767313 2.66342971 8.75132422 2 7.125 C1.62875 6.22007812 1.2575 5.31515625 0.875 4.3828125 C0 2 0 2 0 0 Z " fill="#444C6A" transform="translate(298,279)"/>
<path d="M0 0 C1.485 0.99 1.485 0.99 3 2 C3.99 2.33 4.98 2.66 6 3 C6 4.32 6 5.64 6 7 C5.34 7 4.68 7 4 7 C3.67 7.99 3.34 8.98 3 10 C2.01 6.7 1.02 3.4 0 0 Z " fill="#404565" transform="translate(138,275)"/>
<path d="M0 0 C0.66 0 1.32 0 2 0 C1.39009109 3.55780196 0.4216319 6.6828589 -1 10 C-1.66 10 -2.32 10 -3 10 C-3 7.69 -3 5.38 -3 3 C-2.01 2.67 -1.02 2.34 0 2 C0 1.34 0 0.68 0 0 Z " fill="#444963" transform="translate(163,272)"/>
<path d="M0 0 C2.475 0.495 2.475 0.495 5 1 C4.67 2.65 4.34 4.3 4 6 C2.68 5.67 1.36 5.34 0 5 C0 3.35 0 1.7 0 0 Z " fill="#555D75" transform="translate(259,267)"/>
<path d="M0 0 C3.96 0 7.92 0 12 0 C12 0.33 12 0.66 12 1 C4.57142857 3.14285714 4.57142857 3.14285714 1 4 C0.67 2.68 0.34 1.36 0 0 Z " fill="#0D1132" transform="translate(283,239)"/>
<path d="M0 0 C1.32 0.33 2.64 0.66 4 1 C4 2.65 4 4.3 4 6 C2.68 6 1.36 6 0 6 C0 5.34 0 4.68 0 4 C-1.65 4 -3.3 4 -5 4 C-5 3.67 -5 3.34 -5 3 C-3.02 3 -1.04 3 1 3 C0.67 2.01 0.34 1.02 0 0 Z " fill="#60677E" transform="translate(205,306)"/>
<path d="M0 0 C3.15330554 0.60694155 5.18888867 1.6416665 7.75 3.5625 C8.67039062 4.24505859 8.67039062 4.24505859 9.609375 4.94140625 C10.29773438 5.46541016 10.29773438 5.46541016 11 6 C8.04725901 6 6.50941597 5.56108169 3.8125 4.5 C3.09707031 4.2215625 2.38164063 3.943125 1.64453125 3.65625 C1.10183594 3.4396875 0.55914062 3.223125 0 3 C0 2.01 0 1.02 0 0 Z " fill="#565D76" transform="translate(71,240)"/>
<path d="M0 0 C0.66 0.99 1.32 1.98 2 3 C0.35 2.67 -1.3 2.34 -3 2 C-3.66 3.65 -4.32 5.3 -5 7 C-5.66 6.67 -6.32 6.34 -7 6 C-7 4.35 -7 2.7 -7 1 C-3.535 0.505 -3.535 0.505 0 0 Z " fill="#0F163A" transform="translate(186,239)"/>
<path d="M0 0 C0.99 0 1.98 0 3 0 C3 0.99 3 1.98 3 3 C4.65 3 6.3 3 8 3 C7.01 4.485 7.01 4.485 6 6 C4.68 6 3.36 6 2 6 C0 3 0 3 0 0 Z " fill="#659AA3" transform="translate(266,218)"/>
<path d="M0 0 C2.97 0.495 2.97 0.495 6 1 C6.33 1.99 6.66 2.98 7 4 C4.66666667 8.66666667 4.66666667 8.66666667 2 10 C2.33 8.68 2.66 7.36 3 6 C3.66 6 4.32 6 5 6 C5 4.68 5 3.36 5 2 C3.02 2 1.04 2 -1 2 C-0.67 1.34 -0.34 0.68 0 0 Z " fill="#646A85" transform="translate(257,196)"/>
<path d="M0 0 C2.64 0 5.28 0 8 0 C8 0.66 8 1.32 8 2 C6.02 2.99 4.04 3.98 2 5 C1.34 3.35 0.68 1.7 0 0 Z " fill="#19294A" transform="translate(253,163)"/>
<path d="M0 0 C2.475 0.99 2.475 0.99 5 2 C5 3.32 5 4.64 5 6 C4.01 6.495 4.01 6.495 3 7 C1.5 5.75 1.5 5.75 0 4 C0 2.68 0 1.36 0 0 Z " fill="#545A75" transform="translate(253,306)"/>
<path d="M0 0 C1.65 0 3.3 0 5 0 C5.33 0.66 5.66 1.32 6 2 C3.525 3.485 3.525 3.485 1 5 C1 4.34 1 3.68 1 3 C-1.64 3 -4.28 3 -7 3 C-7 2.67 -7 2.34 -7 2 C-3.535 1.505 -3.535 1.505 0 1 C0 0.67 0 0.34 0 0 Z " fill="#1C2545" transform="translate(309,307)"/>
<path d="M0 0 C0.66 0.33 1.32 0.66 2 1 C-0.475 6.94 -0.475 6.94 -3 13 C-5 10 -5 10 -5 8 C-4.01 8 -3.02 8 -2 8 C-2.33 6.35 -2.66 4.7 -3 3 C-2.01 3 -1.02 3 0 3 C0 2.01 0 1.02 0 0 Z " fill="#5C6077" transform="translate(354,254)"/>
<path d="M0 0 C1.98 0 3.96 0 6 0 C4.515 1.98 4.515 1.98 3 4 C3.99 4.33 4.98 4.66 6 5 C3.125 5.125 3.125 5.125 0 5 C-0.66 4.34 -1.32 3.68 -2 3 C-1.34 2.67 -0.68 2.34 0 2 C0 1.34 0 0.68 0 0 Z " fill="#737892" transform="translate(198,326)"/>
<path d="M0 0 C1.65 0 3.3 0 5 0 C5.33 1.65 5.66 3.3 6 5 C3 5 3 5 1.3125 3.625 C0 2 0 2 0 0 Z " fill="#3F4562" transform="translate(209,286)"/>
<path d="M0 0 C0.66 0 1.32 0 2 0 C2.93423645 3.01031744 3.04449911 3.86650268 2 7 C1.34 7 0.68 7 0 7 C0 8.98 0 10.96 0 13 C-0.33 13 -0.66 13 -1 13 C-0.67 8.71 -0.34 4.42 0 0 Z " fill="#5F9BA8" transform="translate(239,255)"/>
<path d="M0 0 C0.33 0.66 0.66 1.32 1 2 C0.34 2 -0.32 2 -1 2 C-0.67 2.99 -0.34 3.98 0 5 C-0.99 5.33 -1.98 5.66 -3 6 C-3 7.65 -3 9.3 -3 11 C-3.99 11.495 -3.99 11.495 -5 12 C-5.33 11.01 -5.66 10.02 -6 9 C-5.34 9 -4.68 9 -4 9 C-4.0825 8.2575 -4.165 7.515 -4.25 6.75 C-3.92894816 3.21842973 -2.64734383 2.23369636 0 0 Z " fill="#59939D" transform="translate(236,243)"/>
<path d="M0 0 C0.99 0.66 1.98 1.32 3 2 C1.68 4.31 0.36 6.62 -1 9 C-1.66 9 -2.32 9 -3 9 C-2.01 6.03 -1.02 3.06 0 0 Z " fill="#3D475F" transform="translate(344,249)"/>
<path d="M0 0 C0.66 0.33 1.32 0.66 2 1 C1.67 1.66 1.34 2.32 1 3 C1.66 3.33 2.32 3.66 3 4 C2.34 4 1.68 4 1 4 C1 4.66 1 5.32 1 6 C-0.32 6.33 -1.64 6.66 -3 7 C-2.625 4.0625 -2.625 4.0625 -2 1 C-1.34 0.67 -0.68 0.34 0 0 Z " fill="#242B49" transform="translate(348,243)"/>
<path d="M0 0 C0.33 2.97 0.66 5.94 1 9 C-3.875 4.25 -3.875 4.25 -5 2 C-1.125 0 -1.125 0 0 0 Z " fill="#454A67" transform="translate(207,276)"/>
<path d="M0 0 C-2.51830747 3.12270126 -3.7261549 3.94523098 -7.75 4.75 C-9.35875 4.87375 -9.35875 4.87375 -11 5 C-8.10998474 1.78887193 -4.47884754 -2.23942377 0 0 Z " fill="#5F687F" transform="translate(248,238)"/>
<path d="M0 0 C2.475 0.99 2.475 0.99 5 2 C5.33 1.34 5.66 0.68 6 0 C6 0.99 6 1.98 6 3 C6.66 3 7.32 3 8 3 C7.67 3.66 7.34 4.32 7 5 C4.9375 5.625 4.9375 5.625 3 6 C3 5.34 3 4.68 3 4 C2.34 4 1.68 4 1 4 C0.67 2.68 0.34 1.36 0 0 Z " fill="#3C4969" transform="translate(241,200)"/>
<path d="M0 0 C1.98 0 3.96 0 6 0 C6 1.32 6 2.64 6 4 C5.01 4.33 4.02 4.66 3 5 C1.5 3.625 1.5 3.625 0 2 C0 1.34 0 0.68 0 0 Z " fill="#0D143A" transform="translate(256,198)"/>
<path d="M0 0 C0.66 0 1.32 0 2 0 C1.39009109 3.55780196 0.4216319 6.6828589 -1 10 C-1.98965019 7.03104944 -2.23779528 5.0913386 -2 2 C-1.34 1.34 -0.68 0.68 0 0 Z " fill="#495170" transform="translate(323,268)"/>
<path d="M0 0 C-1.625 5.75 -1.625 5.75 -5 8 C-4.74438677 5.6568787 -4.40729228 3.32156597 -4 1 C-2 0 -2 0 0 0 Z " fill="#31375B" transform="translate(274,268)"/>
<path d="M0 0 C0.66 0.33 1.32 0.66 2 1 C2 2.65 2 4.3 2 6 C-0.64 5.67 -3.28 5.34 -6 5 C-5.01 4.34 -4.02 3.68 -3 3 C-1.98131338 2.01904252 -0.97648017 1.02297922 0 0 Z " fill="#458493" transform="translate(268,239)"/>
<path d="M0 0 C0.99 0 1.98 0 3 0 C3.33 1.65 3.66 3.3 4 5 C4.66 5 5.32 5 6 5 C6.33 4.34 6.66 3.68 7 3 C7 3.99 7 4.98 7 6 C5.68 6 4.36 6 3 6 C3 5.34 3 4.68 3 4 C2.34 4 1.68 4 1 4 C0.67 2.68 0.34 1.36 0 0 Z " fill="#0B123B" transform="translate(250,201)"/>
<path d="M0 0 C2 1 2 1 3 2 C3.04063832 3.66617115 3.042721 5.33388095 3 7 C2.34 6.67 1.68 6.34 1 6 C0.01 6 -0.98 6 -2 6 C-1.49396008 3.83125748 -1.00016187 2.00032373 0 0 Z " fill="#1E2350" transform="translate(256,200)"/>
<path d="M0 0 C1.98 0 3.96 0 6 0 C6 0.33 6 0.66 6 1 C4.35 1 2.7 1 1 1 C1 1.66 1 2.32 1 3 C2.65 3.33 4.3 3.66 6 4 C6 4.33 6 4.66 6 5 C3.03 4.67 0.06 4.34 -3 4 C-2.01 3.67 -1.02 3.34 0 3 C0 2.01 0 1.02 0 0 Z " fill="#6B7088" transform="translate(247,326)"/>
<path d="M0 0 C0 0.66 0 1.32 0 2 C-1.28745036 2.38922918 -2.58019597 2.76098036 -3.875 3.125 C-4.59429687 3.33382813 -5.31359375 3.54265625 -6.0546875 3.7578125 C-6.69664062 3.83773438 -7.33859375 3.91765625 -8 4 C-8.66 3.34 -9.32 2.68 -10 2 C-6.5980513 -0.09350689 -3.94727588 -0.17942163 0 0 Z " fill="#545A74" transform="translate(204,305)"/>
<path d="M0 0 C0.33 0.66 0.66 1.32 1 2 C0.0625 4.125 0.0625 4.125 -1 6 C-1.66 6 -2.32 6 -3 6 C-3.33 6.66 -3.66 7.32 -4 8 C-4.33 6.02 -4.66 4.04 -5 2 C-4.360625 1.855625 -3.72125 1.71125 -3.0625 1.5625 C-1.02454854 1.18992819 -1.02454854 1.18992819 0 0 Z " fill="#444965" transform="translate(318,284)"/>
<path d="M0 0 C1.3303125 0.7115625 1.3303125 0.7115625 2.6875 1.4375 C5.57042756 2.79737149 7.87610623 3.54060386 11 4 C10.01 4.66 9.02 5.32 8 6 C4.8125 5.125 4.8125 5.125 2 4 C2 3.34 2 2.68 2 2 C1.34 2 0.68 2 0 2 C0 1.34 0 0.68 0 0 Z " fill="#6FB0BB" transform="translate(244,277)"/>
<path d="M0 0 C2.86724686 0.57344937 3.8614515 0.8614515 6 3 C5.34 3.66 4.68 4.32 4 5 C3.01 5 2.02 5 1 5 C0.67 3.35 0.34 1.7 0 0 Z " fill="#0B1439" transform="translate(305,274)"/>
<path d="M0 0 C0.99 0.33 1.98 0.66 3 1 C2.67 2.98 2.34 4.96 2 7 C1.34 7 0.68 7 0 7 C-0.38133299 5.0085944 -0.71325582 3.00720923 -1 1 C-0.67 0.67 -0.34 0.34 0 0 Z " fill="#262E4C" transform="translate(164,265)"/>
<path d="M0 0 C0.98120464 3.05263664 0.98120464 4.94736336 0 8 C-0.99 8 -1.98 8 -3 8 C-3.33 8.99 -3.66 9.98 -4 11 C-3.39301257 6.87248551 -1.96189209 3.6678852 0 0 Z " fill="#6EACB8" transform="translate(231,248)"/>
<path d="M0 0 C0.99 0.66 1.98 1.32 3 2 C2.6875 3.9375 2.6875 3.9375 2 6 C1.01 6.33 0.02 6.66 -1 7 C-1 4.37886292 -0.68707555 2.49064888 0 0 Z M2 0 C4 1 4 1 4 1 Z " fill="#0D1539" transform="translate(169,249)"/>
<path d="M0 0 C0 0.99 0 1.98 0 3 C-4.75 4.125 -4.75 4.125 -7 3 C-7 2.34 -7 1.68 -7 1 C-2.25 0 -2.25 0 0 0 Z " fill="#0C1031" transform="translate(255,326)"/>
<path d="M0 0 C0.99 0.33 1.98 0.66 3 1 C3 2.32 3 3.64 3 5 C1.35 5 -0.3 5 -2 5 C-2.33 4.34 -2.66 3.68 -3 3 C-2.01 3 -1.02 3 0 3 C0 2.01 0 1.02 0 0 Z " fill="#3A3E5E" transform="translate(244,324)"/>
<path d="M0 0 C2.97 0.33 5.94 0.66 9 1 C8.01 2.485 8.01 2.485 7 4 C4.61435923 3.42415568 2.33317216 2.77772405 0 2 C0 1.34 0 0.68 0 0 Z " fill="#404962" transform="translate(242,291)"/>
<path d="M0 0 C0.66 0.33 1.32 0.66 2 1 C1.125 5.75 1.125 5.75 0 8 C-0.66 8 -1.32 8 -2 8 C-2.33 7.01 -2.66 6.02 -3 5 C-1.5625 2.3125 -1.5625 2.3125 0 0 Z " fill="#313A5C" transform="translate(158,283)"/>
<path d="M0 0 C0.99 0.33 1.98 0.66 3 1 C2.34 2.98 1.68 4.96 1 7 C-2 3.25 -2 3.25 -2 1 C-1.34 0.67 -0.68 0.34 0 0 Z " fill="#0C1335" transform="translate(316,281)"/>
<path d="M0 0 C1 4 1 4 0 6 C1.32 5.34 2.64 4.68 4 4 C3.67 4.99 3.34 5.98 3 7 C0.4375 8.1875 0.4375 8.1875 -2 9 C-1.34 6.03 -0.68 3.06 0 0 Z " fill="#4B5171" transform="translate(320,245)"/>
<path d="M0 0 C0.66 0 1.32 0 2 0 C2 2.64 2 5.28 2 8 C0 7 0 7 -1 6 C-1.125 3.5 -1.125 3.5 -1 1 C-0.67 0.67 -0.34 0.34 0 0 Z " fill="#0D143A" transform="translate(362,245)"/>
<path d="M0 0 C1.4540625 0.0309375 1.4540625 0.0309375 2.9375 0.0625 C3.2675 0.7225 3.5975 1.3825 3.9375 2.0625 C1.0625 2.6875 1.0625 2.6875 -2.0625 3.0625 C-2.7225 2.4025 -3.3825 1.7425 -4.0625 1.0625 C-3.0625 0.0625 -3.0625 0.0625 0 0 Z " fill="#0B1034" transform="translate(340.0625,326.9375)"/>
<path d="M0 0 C1.32 0 2.64 0 4 0 C3 2 3 2 2 3 C2.99 3 3.98 3 5 3 C5 3.66 5 4.32 5 5 C3.68 5.33 2.36 5.66 1 6 C0.67 4.02 0.34 2.04 0 0 Z " fill="#0C1133" transform="translate(205,319)"/>
<path d="M0 0 C1.485 0.99 1.485 0.99 3 2 C2.34 2 1.68 2 1 2 C1.66 3.65 2.32 5.3 3 7 C2.01 7.33 1.02 7.66 0 8 C-0.98120464 4.94736336 -0.98120464 3.05263664 0 0 Z " fill="#0C1339" transform="translate(333,277)"/>
<path d="M0 0 C0.66 0 1.32 0 2 0 C2.33 2.64 2.66 5.28 3 8 C2.67 7.34 2.34 6.68 2 6 C1.01 5.67 0.02 5.34 -1 5 C-0.67 3.35 -0.34 1.7 0 0 Z " fill="#0C1337" transform="translate(147,271)"/>
<path d="M0 0 C1.25541557 3.76624671 0.37061958 5.37188934 -1 9 C-1.66 8.67 -2.32 8.34 -3 8 C-3 7.34 -3 6.68 -3 6 C-2.34 6 -1.68 6 -1 6 C-1.33 4.35 -1.66 2.7 -2 1 C-1.34 0.67 -0.68 0.34 0 0 Z " fill="#3B405D" transform="translate(176,239)"/>
<path d="M0 0 C1.98 0.99 1.98 0.99 4 2 C3.67 3.65 3.34 5.3 3 7 C2.01 6.67 1.02 6.34 0 6 C0 4.02 0 2.04 0 0 Z " fill="#2B848F" transform="translate(273,193)"/>
<path d="M0 0 C1.2065625 0.0309375 1.2065625 0.0309375 2.4375 0.0625 C2.1075 0.7225 1.7775 1.3825 1.4375 2.0625 C0.7775 2.0625 0.1175 2.0625 -0.5625 2.0625 C-0.5625 2.7225 -0.5625 3.3825 -0.5625 4.0625 C-1.2225 4.0625 -1.8825 4.0625 -2.5625 4.0625 C-2.8925 4.7225 -3.2225 5.3825 -3.5625 6.0625 C-3.605221 4.39638095 -3.60313832 2.72867115 -3.5625 1.0625 C-2.5625 0.0625 -2.5625 0.0625 0 0 Z " fill="#404761" transform="translate(238.5625,178.9375)"/>
<path d="M0 0 C0.33 1.32 0.66 2.64 1 4 C-1.31 4 -3.62 4 -6 4 C-4 1 -4 1 -1.875 0.3125 C-1.25625 0.209375 -0.6375 0.10625 0 0 Z " fill="#121340" transform="translate(248,167)"/>
<path d="M0 0 C-0.33 1.32 -0.66 2.64 -1 4 C-1.66 4 -2.32 4 -3 4 C-3 4.66 -3 5.32 -3 6 C-3.66 6 -4.32 6 -5 6 C-4.625 3.5625 -4.625 3.5625 -4 1 C-2 0 -2 0 0 0 Z " fill="#101634" transform="translate(242,313)"/>
<path d="M0 0 C1.65 0 3.3 0 5 0 C5.33 0.66 5.66 1.32 6 2 C5.67 2.66 5.34 3.32 5 4 C3.0625 3.6875 3.0625 3.6875 1 3 C0.67 2.01 0.34 1.02 0 0 Z " fill="#3C4360" transform="translate(342,308)"/>
<path d="M0 0 C-3.18762365 2.12508244 -5.26512223 2.5020163 -9 3 C-9 2.34 -9 1.68 -9 1 C-6.04335481 -0.4783226 -3.25770263 -0.06032783 0 0 Z " fill="#4A90A0" transform="translate(252,287)"/>
<path d="M0 0 C0.99 0 1.98 0 3 0 C3 2.97 3 5.94 3 9 C2.34 8.67 1.68 8.34 1 8 C1 6.35 1 4.7 1 3 C0.34 3 -0.32 3 -1 3 C-0.67 2.01 -0.34 1.02 0 0 Z " fill="#0A132F" transform="translate(123,283)"/>
<path d="M0 0 C0.99 0.495 0.99 0.495 2 1 C2.73075648 3.3140622 3.40138258 5.64828869 4 8 C3.01 7.67 2.02 7.34 1 7 C0.67 4.69 0.34 2.38 0 0 Z " fill="#434A66" transform="translate(364,246)"/>
<path d="M0 0 C2 3 4 6 6 9 C5.01 9 4.02 9 3 9 C0.50022457 5.66696609 0 4.26696398 0 0 Z " fill="#70AFB3" transform="translate(233,202)"/>
</svg>
